<?xml version="1.0" encoding="utf-8" standalone="no"?>
<!DOCTYPE svg PUBLIC "-//W3C//DTD SVG 1.1//EN"
  "http://www.w3.org/Graphics/SVG/1.1/DTD/svg11.dtd">
<svg xmlns:xlink="http://www.w3.org/1999/xlink" width="1135.071639pt" height="416.157187pt" viewBox="0 0 1135.071639 416.157187" xmlns="http://www.w3.org/2000/svg" version="1.1">
 <metadata>
  <rdf:RDF xmlns:dc="http://purl.org/dc/elements/1.1/" xmlns:cc="http://creativecommons.org/ns#" xmlns:rdf="http://www.w3.org/1999/02/22-rdf-syntax-ns#">
   <cc:Work>
    <dc:type rdf:resource="http://purl.org/dc/dcmitype/StillImage"/>
    <dc:date>2026-06-10T23:45:11.733929</dc:date>
    <dc:format>image/svg+xml</dc:format>
    <dc:creator>
     <cc:Agent>
      <dc:title>Matplotlib v3.10.9, https://matplotlib.org/</dc:title>
     </cc:Agent>
    </dc:creator>
   </cc:Work>
  </rdf:RDF>
 </metadata>
 <defs>
  <style type="text/css">*{stroke-linejoin: round; stroke-linecap: butt}</style>
 </defs>
 <g id="figure_1">
  <g id="patch_1">
   <path d="M 0 416.157187 
L 1135.071639 416.157187 
L 1135.071639 0 
L 0 0 
z
" style="fill: #ffffff"/>
  </g>
  <g id="axes_1">
   <g id="patch_2">
    <path d="M 37.819444 118.878567 
L 148.049441 118.878567 
Q 151.111385 118.878567 151.111385 115.619256 
L 151.111385 63.470291 
Q 151.111385 60.210981 148.049441 60.210981 
L 37.819444 60.210981 
Q 34.757499 60.210981 34.757499 63.470291 
L 34.757499 115.619256 
Q 34.757499 118.878567 37.819444 118.878567 
z
" clip-path="url(#p8a40a86c9c)" style="fill: #d9ead3; stroke: #000000; stroke-width: 2; stroke-linejoin: miter"/>
   </g>
   <g id="patch_3">
    <path d="M 221.536106 131.915808 
L 454.243878 131.915808 
Q 457.305822 131.915808 457.305822 128.656498 
L 457.305822 50.43305 
Q 457.305822 47.173739 454.243878 47.173739 
L 221.536106 47.173739 
Q 218.474162 47.173739 218.474162 50.43305 
L 218.474162 128.656498 
Q 218.474162 131.915808 221.536106 131.915808 
z
" clip-path="url(#p8a40a86c9c)" style="fill: #c9daf8; stroke: #000000; stroke-width: 2; stroke-linejoin: miter"/>
   </g>
   <g id="patch_4">
    <path d="M 37.819444 314.437187 
L 148.049441 314.437187 
Q 151.111385 314.437187 151.111385 311.177877 
L 151.111385 259.028912 
Q 151.111385 255.769601 148.049441 255.769601 
L 37.819444 255.769601 
Q 34.757499 255.769601 34.757499 259.028912 
L 34.757499 311.177877 
Q 34.757499 314.437187 37.819444 314.437187 
z
" clip-path="url(#p8a40a86c9c)" style="fill: #fce5cd; stroke: #000000; stroke-width: 2; stroke-linejoin: miter"/>
   </g>
   <g id="patch_5">
    <path d="M 221.536106 314.437187 
L 454.243878 314.437187 
Q 457.305822 314.437187 457.305822 311.177877 
L 457.305822 259.028912 
Q 457.305822 255.769601 454.243878 255.769601 
L 221.536106 255.769601 
Q 218.474162 255.769601 218.474162 259.028912 
L 218.474162 311.177877 
Q 218.474162 314.437187 221.536106 314.437187 
z
" clip-path="url(#p8a40a86c9c)" style="fill: #f4cccc; stroke: #000000; stroke-width: 2; stroke-linejoin: miter"/>
   </g>
   <g id="patch_6">
    <path d="M 564.473875 236.213739 
L 686.95165 236.213739 
Q 690.013594 236.213739 690.013594 232.954429 
L 690.013594 141.693739 
Q 690.013594 138.434429 686.95165 138.434429 
L 564.473875 138.434429 
Q 561.411931 138.434429 561.411931 141.693739 
L 561.411931 232.954429 
Q 561.411931 236.213739 564.473875 236.213739 
z
" clip-path="url(#p8a40a86c9c)" style="fill: #e2d5f8; stroke: #000000; stroke-width: 2; stroke-linejoin: miter"/>
   </g>
   <g id="patch_7">
    <path d="M 760.438315 229.695119 
L 895.163867 229.695119 
Q 898.225812 229.695119 898.225812 226.435808 
L 898.225812 148.21236 
Q 898.225812 144.95305 895.163867 144.95305 
L 760.438315 144.95305 
Q 757.376371 144.95305 757.376371 148.21236 
L 757.376371 226.435808 
Q 757.376371 229.695119 760.438315 229.695119 
z
" clip-path="url(#p8a40a86c9c)" style="fill: #fff2cc; stroke: #000000; stroke-width: 2; stroke-linejoin: miter"/>
   </g>
   <g id="patch_8">
    <path d="M 987.022198 216.657877 
L 1097.252196 216.657877 
Q 1100.31414 216.657877 1100.31414 213.398567 
L 1100.31414 161.249601 
Q 1100.31414 157.990291 1097.252196 157.990291 
L 987.022198 157.990291 
Q 983.960254 157.990291 983.960254 161.249601 
L 983.960254 213.398567 
Q 983.960254 216.657877 987.022198 216.657877 
z
" clip-path="url(#p8a40a86c9c)" style="fill: #d9ead3; stroke: #000000; stroke-width: 2; stroke-linejoin: miter"/>
   </g>
   <g id="text_1">
    <!-- Image Input -->
    <g transform="translate(48.60038 83.252468) scale(0.13 -0.13)">
     <defs>
      <path id="DejaVuSans-Bold-49" d="M 588 4666 
L 1791 4666 
L 1791 0 
L 588 0 
L 588 4666 
z
" transform="scale(0.015625)"/>
      <path id="DejaVuSans-Bold-6d" d="M 3781 2919 
Q 3994 3244 4286 3414 
Q 4578 3584 4928 3584 
Q 5531 3584 5847 3212 
Q 6163 2841 6163 2131 
L 6163 0 
L 5038 0 
L 5038 1825 
Q 5041 1866 5042 1909 
Q 5044 1953 5044 2034 
Q 5044 2406 4934 2573 
Q 4825 2741 4581 2741 
Q 4263 2741 4089 2478 
Q 3916 2216 3909 1719 
L 3909 0 
L 2784 0 
L 2784 1825 
Q 2784 2406 2684 2573 
Q 2584 2741 2328 2741 
Q 2006 2741 1831 2477 
Q 1656 2213 1656 1722 
L 1656 0 
L 531 0 
L 531 3500 
L 1656 3500 
L 1656 2988 
Q 1863 3284 2130 3434 
Q 2397 3584 2719 3584 
Q 3081 3584 3359 3409 
Q 3638 3234 3781 2919 
z
" transform="scale(0.015625)"/>
      <path id="DejaVuSans-Bold-61" d="M 2106 1575 
Q 1756 1575 1579 1456 
Q 1403 1338 1403 1106 
Q 1403 894 1545 773 
Q 1688 653 1941 653 
Q 2256 653 2472 879 
Q 2688 1106 2688 1447 
L 2688 1575 
L 2106 1575 
z
M 3816 1997 
L 3816 0 
L 2688 0 
L 2688 519 
Q 2463 200 2181 54 
Q 1900 -91 1497 -91 
Q 953 -91 614 226 
Q 275 544 275 1050 
Q 275 1666 698 1953 
Q 1122 2241 2028 2241 
L 2688 2241 
L 2688 2328 
Q 2688 2594 2478 2717 
Q 2269 2841 1825 2841 
Q 1466 2841 1156 2769 
Q 847 2697 581 2553 
L 581 3406 
Q 941 3494 1303 3539 
Q 1666 3584 2028 3584 
Q 2975 3584 3395 3211 
Q 3816 2838 3816 1997 
z
" transform="scale(0.015625)"/>
      <path id="DejaVuSans-Bold-67" d="M 2919 594 
Q 2688 288 2409 144 
Q 2131 0 1766 0 
Q 1125 0 706 504 
Q 288 1009 288 1791 
Q 288 2575 706 3076 
Q 1125 3578 1766 3578 
Q 2131 3578 2409 3434 
Q 2688 3291 2919 2981 
L 2919 3500 
L 4044 3500 
L 4044 353 
Q 4044 -491 3511 -936 
Q 2978 -1381 1966 -1381 
Q 1638 -1381 1331 -1331 
Q 1025 -1281 716 -1178 
L 716 -306 
Q 1009 -475 1290 -558 
Q 1572 -641 1856 -641 
Q 2406 -641 2662 -400 
Q 2919 -159 2919 353 
L 2919 594 
z
M 2181 2772 
Q 1834 2772 1640 2515 
Q 1447 2259 1447 1791 
Q 1447 1309 1634 1061 
Q 1822 813 2181 813 
Q 2531 813 2725 1069 
Q 2919 1325 2919 1791 
Q 2919 2259 2725 2515 
Q 2531 2772 2181 2772 
z
" transform="scale(0.015625)"/>
      <path id="DejaVuSans-Bold-65" d="M 4031 1759 
L 4031 1441 
L 1416 1441 
Q 1456 1047 1700 850 
Q 1944 653 2381 653 
Q 2734 653 3104 758 
Q 3475 863 3866 1075 
L 3866 213 
Q 3469 63 3072 -14 
Q 2675 -91 2278 -91 
Q 1328 -91 801 392 
Q 275 875 275 1747 
Q 275 2603 792 3093 
Q 1309 3584 2216 3584 
Q 3041 3584 3536 3087 
Q 4031 2591 4031 1759 
z
M 2881 2131 
Q 2881 2450 2695 2645 
Q 2509 2841 2209 2841 
Q 1884 2841 1681 2658 
Q 1478 2475 1428 2131 
L 2881 2131 
z
" transform="scale(0.015625)"/>
      <path id="DejaVuSans-Bold-20" transform="scale(0.015625)"/>
      <path id="DejaVuSans-Bold-6e" d="M 4056 2131 
L 4056 0 
L 2931 0 
L 2931 347 
L 2931 1631 
Q 2931 2084 2911 2256 
Q 2891 2428 2841 2509 
Q 2775 2619 2662 2680 
Q 2550 2741 2406 2741 
Q 2056 2741 1856 2470 
Q 1656 2200 1656 1722 
L 1656 0 
L 538 0 
L 538 3500 
L 1656 3500 
L 1656 2988 
Q 1909 3294 2193 3439 
Q 2478 3584 2822 3584 
Q 3428 3584 3742 3212 
Q 4056 2841 4056 2131 
z
" transform="scale(0.015625)"/>
      <path id="DejaVuSans-Bold-70" d="M 1656 506 
L 1656 -1331 
L 538 -1331 
L 538 3500 
L 1656 3500 
L 1656 2988 
Q 1888 3294 2169 3439 
Q 2450 3584 2816 3584 
Q 3463 3584 3878 3070 
Q 4294 2556 4294 1747 
Q 4294 938 3878 423 
Q 3463 -91 2816 -91 
Q 2450 -91 2169 54 
Q 1888 200 1656 506 
z
M 2400 2772 
Q 2041 2772 1848 2508 
Q 1656 2244 1656 1747 
Q 1656 1250 1848 986 
Q 2041 722 2400 722 
Q 2759 722 2948 984 
Q 3138 1247 3138 1747 
Q 3138 2247 2948 2509 
Q 2759 2772 2400 2772 
z
" transform="scale(0.015625)"/>
      <path id="DejaVuSans-Bold-75" d="M 500 1363 
L 500 3500 
L 1625 3500 
L 1625 3150 
Q 1625 2866 1622 2436 
Q 1619 2006 1619 1863 
Q 1619 1441 1641 1255 
Q 1663 1069 1716 984 
Q 1784 875 1895 815 
Q 2006 756 2150 756 
Q 2500 756 2700 1025 
Q 2900 1294 2900 1772 
L 2900 3500 
L 4019 3500 
L 4019 0 
L 2900 0 
L 2900 506 
Q 2647 200 2364 54 
Q 2081 -91 1741 -91 
Q 1134 -91 817 281 
Q 500 653 500 1363 
z
" transform="scale(0.015625)"/>
      <path id="DejaVuSans-Bold-74" d="M 1759 4494 
L 1759 3500 
L 2913 3500 
L 2913 2700 
L 1759 2700 
L 1759 1216 
Q 1759 972 1856 886 
Q 1953 800 2241 800 
L 2816 800 
L 2816 0 
L 1856 0 
Q 1194 0 917 276 
Q 641 553 641 1216 
L 641 2700 
L 84 2700 
L 84 3500 
L 641 3500 
L 641 4494 
L 1759 4494 
z
" transform="scale(0.015625)"/>
     </defs>
     <use xlink:href="#DejaVuSans-Bold-49"/>
     <use xlink:href="#DejaVuSans-Bold-6d" transform="translate(37.207031 0)"/>
     <use xlink:href="#DejaVuSans-Bold-61" transform="translate(141.40625 0)"/>
     <use xlink:href="#DejaVuSans-Bold-67" transform="translate(208.886719 0)"/>
     <use xlink:href="#DejaVuSans-Bold-65" transform="translate(280.46875 0)"/>
     <use xlink:href="#DejaVuSans-Bold-20" transform="translate(348.291016 0)"/>
     <use xlink:href="#DejaVuSans-Bold-49" transform="translate(383.105469 0)"/>
     <use xlink:href="#DejaVuSans-Bold-6e" transform="translate(420.3125 0)"/>
     <use xlink:href="#DejaVuSans-Bold-70" transform="translate(491.503906 0)"/>
     <use xlink:href="#DejaVuSans-Bold-75" transform="translate(563.085938 0)"/>
     <use xlink:href="#DejaVuSans-Bold-74" transform="translate(634.277344 0)"/>
    </g>
   </g>
   <g id="text_2">
    <!-- 128×128×3 -->
    <g style="fill: #333333" transform="translate(59.221161 108.876638) scale(0.11 -0.11)">
     <defs>
      <path id="DejaVuSans-Oblique-31" d="M 416 531 
L 1447 531 
L 2144 4122 
L 978 3897 
L 1088 4441 
L 2247 4666 
L 2881 4666 
L 2075 531 
L 3103 531 
L 3003 0 
L 313 0 
L 416 531 
z
" transform="scale(0.015625)"/>
      <path id="DejaVuSans-Oblique-32" d="M 2950 2253 
L 934 525 
L 3163 525 
L 3053 0 
L 25 0 
L 128 531 
L 2234 2338 
Q 2656 2703 2832 2979 
Q 3009 3256 3009 3547 
Q 3009 3850 2796 4040 
Q 2584 4231 2241 4231 
Q 1944 4231 1581 4125 
Q 1219 4019 806 3816 
L 922 4441 
Q 1309 4594 1662 4672 
Q 2016 4750 2316 4750 
Q 2928 4750 3301 4425 
Q 3675 4100 3675 3572 
Q 3675 3216 3497 2892 
Q 3319 2569 2950 2253 
z
" transform="scale(0.015625)"/>
      <path id="DejaVuSans-Oblique-38" d="M 2847 1416 
Q 2847 1769 2600 1992 
Q 2353 2216 1953 2216 
Q 1466 2216 1148 1923 
Q 831 1631 831 1184 
Q 831 828 1073 618 
Q 1316 409 1728 409 
Q 2219 409 2533 693 
Q 2847 978 2847 1416 
z
M 3169 3591 
Q 3169 3888 2950 4069 
Q 2731 4250 2369 4250 
Q 1941 4250 1664 4009 
Q 1388 3769 1388 3406 
Q 1388 3094 1605 2903 
Q 1822 2713 2181 2713 
Q 2613 2713 2891 2961 
Q 3169 3209 3169 3591 
z
M 2741 2456 
Q 3094 2322 3281 2050 
Q 3469 1778 3469 1394 
Q 3469 747 2969 328 
Q 2469 -91 1678 -91 
Q 1006 -91 609 239 
Q 213 569 213 1119 
Q 213 1619 553 2008 
Q 894 2397 1441 2503 
Q 1113 2616 941 2852 
Q 769 3088 769 3425 
Q 769 3991 1239 4370 
Q 1709 4750 2431 4750 
Q 3034 4750 3414 4442 
Q 3794 4134 3794 3659 
Q 3794 3247 3511 2923 
Q 3228 2600 2741 2456 
z
" transform="scale(0.015625)"/>
      <path id="DejaVuSans-Oblique-d7" d="M 4488 3438 
L 3059 2003 
L 4488 575 
L 4116 197 
L 2681 1631 
L 1247 197 
L 878 575 
L 2303 2003 
L 878 3438 
L 1247 3816 
L 2681 2381 
L 4116 3816 
L 4488 3438 
z
" transform="scale(0.015625)"/>
      <path id="DejaVuSans-Oblique-33" d="M 1013 4550 
Q 1356 4650 1679 4700 
Q 2003 4750 2316 4750 
Q 2934 4750 3296 4475 
Q 3659 4200 3659 3738 
Q 3659 3284 3373 2959 
Q 3088 2634 2584 2516 
Q 2978 2403 3162 2165 
Q 3347 1928 3347 1538 
Q 3347 1163 3167 834 
Q 2988 506 2650 269 
Q 2394 88 2037 -1 
Q 1681 -91 1216 -91 
Q 922 -91 622 -33 
Q 322 25 13 141 
L 128 738 
Q 422 575 720 495 
Q 1019 416 1331 416 
Q 1947 416 2330 733 
Q 2713 1050 2713 1556 
Q 2713 1881 2469 2057 
Q 2225 2234 1772 2234 
L 1228 2234 
L 1325 2747 
L 1900 2747 
Q 2419 2747 2717 2984 
Q 3016 3222 3016 3628 
Q 3016 3922 2797 4083 
Q 2578 4244 2181 4244 
Q 1881 4244 1567 4180 
Q 1253 4116 916 3988 
L 1013 4550 
z
" transform="scale(0.015625)"/>
     </defs>
     <use xlink:href="#DejaVuSans-Oblique-31"/>
     <use xlink:href="#DejaVuSans-Oblique-32" transform="translate(63.623047 0)"/>
     <use xlink:href="#DejaVuSans-Oblique-38" transform="translate(127.246094 0)"/>
     <use xlink:href="#DejaVuSans-Oblique-d7" transform="translate(190.869141 0)"/>
     <use xlink:href="#DejaVuSans-Oblique-31" transform="translate(274.658203 0)"/>
     <use xlink:href="#DejaVuSans-Oblique-32" transform="translate(338.28125 0)"/>
     <use xlink:href="#DejaVuSans-Oblique-38" transform="translate(401.904297 0)"/>
     <use xlink:href="#DejaVuSans-Oblique-d7" transform="translate(465.527344 0)"/>
     <use xlink:href="#DejaVuSans-Oblique-33" transform="translate(549.316406 0)"/>
    </g>
   </g>
   <g id="patch_9">
    <path d="M 148.049441 88.794774 
Q 179.79394 88.794774 211.538439 88.794774 
L 211.538439 85.544774 
Q 216.537272 87.544774 221.536106 89.544774 
Q 216.537272 91.544774 211.538439 93.544774 
L 211.538439 90.294774 
Q 179.79394 90.294774 148.049441 90.294774 
L 148.049441 88.794774 
z
" style="stroke: #000000; stroke-linecap: round"/>
   </g>
   <g id="text_3">
    <!-- Image Encoder -->
    <g transform="translate(283.334679 76.024671) scale(0.13 -0.13)">
     <defs>
      <path id="DejaVuSans-Bold-45" d="M 588 4666 
L 3834 4666 
L 3834 3756 
L 1791 3756 
L 1791 2888 
L 3713 2888 
L 3713 1978 
L 1791 1978 
L 1791 909 
L 3903 909 
L 3903 0 
L 588 0 
L 588 4666 
z
" transform="scale(0.015625)"/>
      <path id="DejaVuSans-Bold-63" d="M 3366 3391 
L 3366 2478 
Q 3138 2634 2908 2709 
Q 2678 2784 2431 2784 
Q 1963 2784 1702 2511 
Q 1441 2238 1441 1747 
Q 1441 1256 1702 982 
Q 1963 709 2431 709 
Q 2694 709 2930 787 
Q 3166 866 3366 1019 
L 3366 103 
Q 3103 6 2833 -42 
Q 2563 -91 2291 -91 
Q 1344 -91 809 395 
Q 275 881 275 1747 
Q 275 2613 809 3098 
Q 1344 3584 2291 3584 
Q 2566 3584 2833 3536 
Q 3100 3488 3366 3391 
z
" transform="scale(0.015625)"/>
      <path id="DejaVuSans-Bold-6f" d="M 2203 2784 
Q 1831 2784 1636 2517 
Q 1441 2250 1441 1747 
Q 1441 1244 1636 976 
Q 1831 709 2203 709 
Q 2569 709 2762 976 
Q 2956 1244 2956 1747 
Q 2956 2250 2762 2517 
Q 2569 2784 2203 2784 
z
M 2203 3584 
Q 3106 3584 3614 3096 
Q 4122 2609 4122 1747 
Q 4122 884 3614 396 
Q 3106 -91 2203 -91 
Q 1297 -91 786 396 
Q 275 884 275 1747 
Q 275 2609 786 3096 
Q 1297 3584 2203 3584 
z
" transform="scale(0.015625)"/>
      <path id="DejaVuSans-Bold-64" d="M 2919 2988 
L 2919 4863 
L 4044 4863 
L 4044 0 
L 2919 0 
L 2919 506 
Q 2688 197 2409 53 
Q 2131 -91 1766 -91 
Q 1119 -91 703 423 
Q 288 938 288 1747 
Q 288 2556 703 3070 
Q 1119 3584 1766 3584 
Q 2128 3584 2408 3439 
Q 2688 3294 2919 2988 
z
M 2181 722 
Q 2541 722 2730 984 
Q 2919 1247 2919 1747 
Q 2919 2247 2730 2509 
Q 2541 2772 2181 2772 
Q 1825 2772 1636 2509 
Q 1447 2247 1447 1747 
Q 1447 1247 1636 984 
Q 1825 722 2181 722 
z
" transform="scale(0.015625)"/>
      <path id="DejaVuSans-Bold-72" d="M 3138 2547 
Q 2991 2616 2845 2648 
Q 2700 2681 2553 2681 
Q 2122 2681 1889 2404 
Q 1656 2128 1656 1613 
L 1656 0 
L 538 0 
L 538 3500 
L 1656 3500 
L 1656 2925 
Q 1872 3269 2151 3426 
Q 2431 3584 2822 3584 
Q 2878 3584 2943 3579 
Q 3009 3575 3134 3559 
L 3138 2547 
z
" transform="scale(0.015625)"/>
     </defs>
     <use xlink:href="#DejaVuSans-Bold-49"/>
     <use xlink:href="#DejaVuSans-Bold-6d" transform="translate(37.207031 0)"/>
     <use xlink:href="#DejaVuSans-Bold-61" transform="translate(141.40625 0)"/>
     <use xlink:href="#DejaVuSans-Bold-67" transform="translate(208.886719 0)"/>
     <use xlink:href="#DejaVuSans-Bold-65" transform="translate(280.46875 0)"/>
     <use xlink:href="#DejaVuSans-Bold-20" transform="translate(348.291016 0)"/>
     <use xlink:href="#DejaVuSans-Bold-45" transform="translate(383.105469 0)"/>
     <use xlink:href="#DejaVuSans-Bold-6e" transform="translate(451.416016 0)"/>
     <use xlink:href="#DejaVuSans-Bold-63" transform="translate(522.607422 0)"/>
     <use xlink:href="#DejaVuSans-Bold-6f" transform="translate(581.884766 0)"/>
     <use xlink:href="#DejaVuSans-Bold-64" transform="translate(650.585938 0)"/>
     <use xlink:href="#DejaVuSans-Bold-65" transform="translate(722.167969 0)"/>
     <use xlink:href="#DejaVuSans-Bold-72" transform="translate(789.990234 0)"/>
    </g>
    <!-- (CNN) -->
    <g transform="translate(316.29882 90.68339) scale(0.13 -0.13)">
     <defs>
      <path id="DejaVuSans-Bold-28" d="M 2413 -844 
L 1484 -844 
Q 1006 -72 778 623 
Q 550 1319 550 2003 
Q 550 2688 779 3389 
Q 1009 4091 1484 4856 
L 2413 4856 
Q 2013 4116 1813 3408 
Q 1613 2700 1613 2009 
Q 1613 1319 1811 609 
Q 2009 -100 2413 -844 
z
" transform="scale(0.015625)"/>
      <path id="DejaVuSans-Bold-43" d="M 4288 256 
Q 3956 84 3597 -3 
Q 3238 -91 2847 -91 
Q 1681 -91 1000 561 
Q 319 1213 319 2328 
Q 319 3447 1000 4098 
Q 1681 4750 2847 4750 
Q 3238 4750 3597 4662 
Q 3956 4575 4288 4403 
L 4288 3438 
Q 3953 3666 3628 3772 
Q 3303 3878 2944 3878 
Q 2300 3878 1931 3465 
Q 1563 3053 1563 2328 
Q 1563 1606 1931 1193 
Q 2300 781 2944 781 
Q 3303 781 3628 887 
Q 3953 994 4288 1222 
L 4288 256 
z
" transform="scale(0.015625)"/>
      <path id="DejaVuSans-Bold-4e" d="M 588 4666 
L 1931 4666 
L 3628 1466 
L 3628 4666 
L 4769 4666 
L 4769 0 
L 3425 0 
L 1728 3200 
L 1728 0 
L 588 0 
L 588 4666 
z
" transform="scale(0.015625)"/>
      <path id="DejaVuSans-Bold-29" d="M 513 -844 
Q 913 -100 1113 609 
Q 1313 1319 1313 2009 
Q 1313 2700 1113 3408 
Q 913 4116 513 4856 
L 1441 4856 
Q 1916 4091 2145 3389 
Q 2375 2688 2375 2003 
Q 2375 1319 2147 623 
Q 1919 -72 1441 -844 
L 513 -844 
z
" transform="scale(0.015625)"/>
     </defs>
     <use xlink:href="#DejaVuSans-Bold-28"/>
     <use xlink:href="#DejaVuSans-Bold-43" transform="translate(45.703125 0)"/>
     <use xlink:href="#DejaVuSans-Bold-4e" transform="translate(119.091797 0)"/>
     <use xlink:href="#DejaVuSans-Bold-4e" transform="translate(202.783203 0)"/>
     <use xlink:href="#DejaVuSans-Bold-29" transform="translate(286.474609 0)"/>
    </g>
   </g>
   <g id="text_4">
    <!-- Conv Blocks: 16→32→64→96 -->
    <g style="fill: #333333" transform="translate(259.032023 102.717841) scale(0.11 -0.11)">
     <defs>
      <path id="DejaVuSans-Oblique-43" d="M 4447 4306 
L 4319 3641 
Q 4019 3944 3683 4091 
Q 3347 4238 2956 4238 
Q 2422 4238 2017 3981 
Q 1613 3725 1319 3200 
Q 1131 2863 1032 2486 
Q 934 2109 934 1728 
Q 934 1091 1264 756 
Q 1594 422 2222 422 
Q 2656 422 3056 561 
Q 3456 700 3834 978 
L 3688 231 
Q 3316 72 2936 -9 
Q 2556 -91 2175 -91 
Q 1278 -91 773 396 
Q 269 884 269 1753 
Q 269 2309 461 2846 
Q 653 3384 1013 3828 
Q 1394 4300 1883 4525 
Q 2372 4750 3022 4750 
Q 3422 4750 3780 4639 
Q 4138 4528 4447 4306 
z
" transform="scale(0.015625)"/>
      <path id="DejaVuSans-Oblique-6f" d="M 1625 -91 
Q 1009 -91 651 289 
Q 294 669 294 1325 
Q 294 1706 417 2101 
Q 541 2497 738 2766 
Q 1047 3184 1428 3384 
Q 1809 3584 2291 3584 
Q 2888 3584 3255 3212 
Q 3622 2841 3622 2241 
Q 3622 1825 3500 1412 
Q 3378 1000 3181 728 
Q 2875 309 2494 109 
Q 2113 -91 1625 -91 
z
M 891 1344 
Q 891 869 1089 633 
Q 1288 397 1691 397 
Q 2269 397 2648 901 
Q 3028 1406 3028 2181 
Q 3028 2634 2825 2865 
Q 2622 3097 2228 3097 
Q 1903 3097 1650 2945 
Q 1397 2794 1197 2484 
Q 1050 2253 970 1956 
Q 891 1659 891 1344 
z
" transform="scale(0.015625)"/>
      <path id="DejaVuSans-Oblique-6e" d="M 3566 2113 
L 3156 0 
L 2578 0 
L 2988 2091 
Q 3016 2238 3031 2350 
Q 3047 2463 3047 2528 
Q 3047 2791 2881 2937 
Q 2716 3084 2419 3084 
Q 1956 3084 1622 2776 
Q 1288 2469 1184 1941 
L 800 0 
L 225 0 
L 903 3500 
L 1478 3500 
L 1363 2950 
Q 1603 3253 1940 3418 
Q 2278 3584 2650 3584 
Q 3113 3584 3367 3334 
Q 3622 3084 3622 2631 
Q 3622 2519 3608 2391 
Q 3594 2263 3566 2113 
z
" transform="scale(0.015625)"/>
      <path id="DejaVuSans-Oblique-76" d="M 459 3500 
L 1069 3500 
L 1581 525 
L 3256 3500 
L 3866 3500 
L 1875 0 
L 1100 0 
L 459 3500 
z
" transform="scale(0.015625)"/>
      <path id="DejaVuSans-Oblique-20" transform="scale(0.015625)"/>
      <path id="DejaVuSans-Oblique-42" d="M 1081 4666 
L 2694 4666 
Q 3350 4666 3675 4422 
Q 4000 4178 4000 3688 
Q 4000 3238 3720 2911 
Q 3441 2584 2988 2516 
Q 3375 2428 3569 2181 
Q 3763 1934 3763 1522 
Q 3763 819 3242 409 
Q 2722 0 1819 0 
L 172 0 
L 1081 4666 
z
M 1234 2228 
L 903 519 
L 1919 519 
Q 2491 519 2800 781 
Q 3109 1044 3109 1522 
Q 3109 1891 2904 2059 
Q 2700 2228 2247 2228 
L 1234 2228 
z
M 1606 4147 
L 1331 2741 
L 2272 2741 
Q 2775 2741 3058 2959 
Q 3341 3178 3341 3566 
Q 3341 3869 3150 4008 
Q 2959 4147 2541 4147 
L 1606 4147 
z
" transform="scale(0.015625)"/>
      <path id="DejaVuSans-Oblique-6c" d="M 1172 4863 
L 1747 4863 
L 800 0 
L 225 0 
L 1172 4863 
z
" transform="scale(0.015625)"/>
      <path id="DejaVuSans-Oblique-63" d="M 3431 3366 
L 3316 2797 
Q 3109 2947 2876 3022 
Q 2644 3097 2394 3097 
Q 2119 3097 1870 3000 
Q 1622 2903 1453 2725 
Q 1184 2453 1037 2087 
Q 891 1722 891 1331 
Q 891 859 1127 628 
Q 1363 397 1844 397 
Q 2081 397 2348 469 
Q 2616 541 2906 684 
L 2797 116 
Q 2547 13 2283 -39 
Q 2019 -91 1741 -91 
Q 1044 -91 669 257 
Q 294 606 294 1253 
Q 294 1797 489 2255 
Q 684 2713 1069 3078 
Q 1331 3328 1684 3456 
Q 2038 3584 2456 3584 
Q 2700 3584 2940 3529 
Q 3181 3475 3431 3366 
z
" transform="scale(0.015625)"/>
      <path id="DejaVuSans-Oblique-6b" d="M 1172 4863 
L 1747 4863 
L 1197 2028 
L 3169 3500 
L 3916 3500 
L 1716 1825 
L 3322 0 
L 2625 0 
L 1131 1709 
L 800 0 
L 225 0 
L 1172 4863 
z
" transform="scale(0.015625)"/>
      <path id="DejaVuSans-Oblique-73" d="M 3200 3397 
L 3091 2853 
Q 2863 2978 2609 3040 
Q 2356 3103 2088 3103 
Q 1634 3103 1373 2948 
Q 1113 2794 1113 2528 
Q 1113 2219 1719 2053 
Q 1766 2041 1788 2034 
L 1972 1978 
Q 2547 1819 2739 1644 
Q 2931 1469 2931 1166 
Q 2931 609 2489 259 
Q 2047 -91 1331 -91 
Q 1053 -91 747 -37 
Q 441 16 72 128 
L 184 722 
Q 500 559 806 475 
Q 1113 391 1394 391 
Q 1816 391 2080 572 
Q 2344 753 2344 1031 
Q 2344 1331 1650 1516 
L 1591 1531 
L 1394 1581 
Q 956 1697 753 1886 
Q 550 2075 550 2369 
Q 550 2928 970 3256 
Q 1391 3584 2113 3584 
Q 2397 3584 2667 3537 
Q 2938 3491 3200 3397 
z
" transform="scale(0.015625)"/>
      <path id="DejaVuSans-Oblique-3a" d="M 978 3309 
L 1638 3309 
L 1484 2516 
L 825 2516 
L 978 3309 
z
M 488 794 
L 1147 794 
L 991 0 
L 331 0 
L 488 794 
z
" transform="scale(0.015625)"/>
      <path id="DejaVuSans-Oblique-36" d="M 2938 1728 
Q 2938 2125 2734 2354 
Q 2531 2584 2181 2584 
Q 1697 2584 1367 2211 
Q 1038 1838 1038 1288 
Q 1038 875 1239 642 
Q 1441 409 1797 409 
Q 2284 409 2611 792 
Q 2938 1175 2938 1728 
z
M 3788 4556 
L 3681 3981 
Q 3500 4100 3265 4162 
Q 3031 4225 2766 4225 
Q 2119 4225 1726 3819 
Q 1334 3413 1141 2547 
Q 1369 2813 1670 2948 
Q 1972 3084 2322 3084 
Q 2894 3084 3233 2754 
Q 3572 2425 3572 1869 
Q 3572 1413 3405 1020 
Q 3238 628 2919 331 
Q 2700 128 2409 18 
Q 2119 -91 1791 -91 
Q 1147 -91 775 318 
Q 403 728 403 1441 
Q 403 2103 573 2717 
Q 744 3331 1050 3781 
Q 1372 4256 1830 4503 
Q 2288 4750 2841 4750 
Q 3084 4750 3321 4701 
Q 3559 4653 3788 4556 
z
" transform="scale(0.015625)"/>
      <path id="DejaVuSans-Oblique-2192" d="M 5050 2147 
L 5050 1866 
L 3822 638 
L 3447 1013 
L 4175 1741 
L 366 1741 
L 366 2272 
L 4175 2272 
L 3447 3000 
L 3822 3375 
L 5050 2147 
z
" transform="scale(0.015625)"/>
      <path id="DejaVuSans-Oblique-34" d="M 2753 4666 
L 3547 4666 
L 2950 1625 
L 3616 1625 
L 3513 1100 
L 2847 1100 
L 2638 0 
L 2009 0 
L 2222 1100 
L 116 1100 
L 238 1709 
L 2753 4666 
z
M 2809 4116 
L 728 1625 
L 2322 1625 
L 2809 4116 
z
" transform="scale(0.015625)"/>
      <path id="DejaVuSans-Oblique-39" d="M 281 103 
L 397 678 
Q 578 559 809 496 
Q 1041 434 1306 434 
Q 1953 434 2348 843 
Q 2744 1253 2938 2119 
Q 2706 1853 2401 1714 
Q 2097 1575 1747 1575 
Q 1178 1575 842 1904 
Q 506 2234 506 2791 
Q 506 3247 672 3639 
Q 838 4031 1159 4325 
Q 1378 4531 1665 4640 
Q 1953 4750 2278 4750 
Q 2925 4750 3300 4339 
Q 3675 3928 3675 3219 
Q 3675 2559 3501 1943 
Q 3328 1328 3022 878 
Q 2697 403 2240 156 
Q 1784 -91 1228 -91 
Q 988 -91 748 -42 
Q 509 6 281 103 
z
M 1131 2938 
Q 1131 2541 1337 2308 
Q 1544 2075 1894 2075 
Q 2378 2075 2706 2447 
Q 3034 2819 3034 3372 
Q 3034 3784 2831 4017 
Q 2628 4250 2272 4250 
Q 1788 4250 1459 3870 
Q 1131 3491 1131 2938 
z
" transform="scale(0.015625)"/>
     </defs>
     <use xlink:href="#DejaVuSans-Oblique-43"/>
     <use xlink:href="#DejaVuSans-Oblique-6f" transform="translate(69.824219 0)"/>
     <use xlink:href="#DejaVuSans-Oblique-6e" transform="translate(131.005859 0)"/>
     <use xlink:href="#DejaVuSans-Oblique-76" transform="translate(194.384766 0)"/>
     <use xlink:href="#DejaVuSans-Oblique-20" transform="translate(253.564453 0)"/>
     <use xlink:href="#DejaVuSans-Oblique-42" transform="translate(285.351562 0)"/>
     <use xlink:href="#DejaVuSans-Oblique-6c" transform="translate(353.955078 0)"/>
     <use xlink:href="#DejaVuSans-Oblique-6f" transform="translate(381.738281 0)"/>
     <use xlink:href="#DejaVuSans-Oblique-63" transform="translate(442.919922 0)"/>
     <use xlink:href="#DejaVuSans-Oblique-6b" transform="translate(497.900391 0)"/>
     <use xlink:href="#DejaVuSans-Oblique-73" transform="translate(555.810547 0)"/>
     <use xlink:href="#DejaVuSans-Oblique-3a" transform="translate(607.910156 0)"/>
     <use xlink:href="#DejaVuSans-Oblique-20" transform="translate(641.601562 0)"/>
     <use xlink:href="#DejaVuSans-Oblique-31" transform="translate(673.388672 0)"/>
     <use xlink:href="#DejaVuSans-Oblique-36" transform="translate(737.011719 0)"/>
     <use xlink:href="#DejaVuSans-Oblique-2192" transform="translate(800.634766 0)"/>
     <use xlink:href="#DejaVuSans-Oblique-33" transform="translate(884.423828 0)"/>
     <use xlink:href="#DejaVuSans-Oblique-32" transform="translate(948.046875 0)"/>
     <use xlink:href="#DejaVuSans-Oblique-2192" transform="translate(1011.669922 0)"/>
     <use xlink:href="#DejaVuSans-Oblique-36" transform="translate(1095.458984 0)"/>
     <use xlink:href="#DejaVuSans-Oblique-34" transform="translate(1159.082031 0)"/>
     <use xlink:href="#DejaVuSans-Oblique-2192" transform="translate(1222.705078 0)"/>
     <use xlink:href="#DejaVuSans-Oblique-39" transform="translate(1306.494141 0)"/>
     <use xlink:href="#DejaVuSans-Oblique-36" transform="translate(1370.117188 0)"/>
    </g>
    <!-- Global Avg Pooling -->
    <g style="fill: #333333" transform="translate(286.259601 115.035435) scale(0.11 -0.11)">
     <defs>
      <path id="DejaVuSans-Oblique-47" d="M 3494 697 
L 3738 1919 
L 2700 1919 
L 2797 2438 
L 4453 2438 
L 4050 384 
Q 3634 156 3143 32 
Q 2653 -91 2156 -91 
Q 1278 -91 783 396 
Q 288 884 288 1753 
Q 288 2475 589 3126 
Q 891 3778 1422 4213 
Q 1756 4484 2153 4617 
Q 2550 4750 3034 4750 
Q 3472 4750 3873 4639 
Q 4275 4528 4641 4306 
L 4513 3634 
Q 4231 3928 3853 4083 
Q 3475 4238 3047 4238 
Q 2550 4238 2172 4048 
Q 1794 3859 1497 3463 
Q 1244 3125 1098 2667 
Q 953 2209 953 1734 
Q 953 1081 1287 751 
Q 1622 422 2284 422 
Q 2616 422 2925 492 
Q 3234 563 3494 697 
z
" transform="scale(0.015625)"/>
      <path id="DejaVuSans-Oblique-62" d="M 3169 2138 
Q 3169 2591 2961 2847 
Q 2753 3103 2388 3103 
Q 2122 3103 1889 2973 
Q 1656 2844 1484 2597 
Q 1303 2338 1198 1995 
Q 1094 1653 1094 1313 
Q 1094 881 1298 636 
Q 1503 391 1863 391 
Q 2134 391 2365 517 
Q 2597 644 2772 891 
Q 2950 1147 3059 1487 
Q 3169 1828 3169 2138 
z
M 1381 2969 
Q 1594 3256 1914 3420 
Q 2234 3584 2584 3584 
Q 3122 3584 3439 3221 
Q 3756 2859 3756 2241 
Q 3756 1734 3570 1259 
Q 3384 784 3041 416 
Q 2816 172 2522 40 
Q 2228 -91 1906 -91 
Q 1566 -91 1316 65 
Q 1066 222 909 531 
L 806 0 
L 231 0 
L 1178 4863 
L 1753 4863 
L 1381 2969 
z
" transform="scale(0.015625)"/>
      <path id="DejaVuSans-Oblique-61" d="M 3438 1997 
L 3047 0 
L 2472 0 
L 2578 531 
Q 2325 219 2001 64 
Q 1678 -91 1281 -91 
Q 834 -91 548 182 
Q 263 456 263 884 
Q 263 1497 752 1853 
Q 1241 2209 2100 2209 
L 2900 2209 
L 2931 2363 
Q 2938 2388 2941 2417 
Q 2944 2447 2944 2509 
Q 2944 2788 2717 2942 
Q 2491 3097 2081 3097 
Q 1800 3097 1504 3025 
Q 1209 2953 897 2809 
L 997 3341 
Q 1322 3463 1633 3523 
Q 1944 3584 2234 3584 
Q 2853 3584 3176 3315 
Q 3500 3047 3500 2534 
Q 3500 2431 3484 2292 
Q 3469 2153 3438 1997 
z
M 2816 1759 
L 2241 1759 
Q 1534 1759 1195 1570 
Q 856 1381 856 984 
Q 856 709 1029 553 
Q 1203 397 1509 397 
Q 1978 397 2328 733 
Q 2678 1069 2791 1631 
L 2816 1759 
z
" transform="scale(0.015625)"/>
      <path id="DejaVuSans-Oblique-41" d="M 2356 4666 
L 3072 4666 
L 3938 0 
L 3278 0 
L 3084 1197 
L 984 1197 
L 325 0 
L -341 0 
L 2356 4666 
z
M 2584 4044 
L 1275 1722 
L 2988 1722 
L 2584 4044 
z
" transform="scale(0.015625)"/>
      <path id="DejaVuSans-Oblique-67" d="M 3816 3500 
L 3219 434 
Q 3047 -456 2561 -893 
Q 2075 -1331 1253 -1331 
Q 950 -1331 690 -1286 
Q 431 -1241 206 -1147 
L 313 -588 
Q 525 -725 762 -790 
Q 1000 -856 1269 -856 
Q 1816 -856 2167 -557 
Q 2519 -259 2631 300 
L 2681 563 
Q 2441 288 2122 144 
Q 1803 0 1434 0 
Q 903 0 598 351 
Q 294 703 294 1319 
Q 294 1803 478 2267 
Q 663 2731 997 3091 
Q 1219 3328 1514 3456 
Q 1809 3584 2131 3584 
Q 2484 3584 2746 3420 
Q 3009 3256 3138 2956 
L 3238 3500 
L 3816 3500 
z
M 2950 2216 
Q 2950 2641 2750 2872 
Q 2550 3103 2181 3103 
Q 1953 3103 1747 3012 
Q 1541 2922 1394 2759 
Q 1156 2491 1023 2127 
Q 891 1763 891 1375 
Q 891 944 1092 712 
Q 1294 481 1672 481 
Q 2219 481 2584 976 
Q 2950 1472 2950 2216 
z
" transform="scale(0.015625)"/>
      <path id="DejaVuSans-Oblique-50" d="M 1081 4666 
L 2541 4666 
Q 3178 4666 3512 4369 
Q 3847 4072 3847 3500 
Q 3847 2731 3353 2303 
Q 2859 1875 1966 1875 
L 1172 1875 
L 806 0 
L 172 0 
L 1081 4666 
z
M 1613 4147 
L 1275 2394 
L 2069 2394 
Q 2606 2394 2893 2669 
Q 3181 2944 3181 3456 
Q 3181 3784 2986 3965 
Q 2791 4147 2438 4147 
L 1613 4147 
z
" transform="scale(0.015625)"/>
      <path id="DejaVuSans-Oblique-69" d="M 1172 4863 
L 1747 4863 
L 1606 4134 
L 1031 4134 
L 1172 4863 
z
M 909 3500 
L 1484 3500 
L 800 0 
L 225 0 
L 909 3500 
z
" transform="scale(0.015625)"/>
     </defs>
     <use xlink:href="#DejaVuSans-Oblique-47"/>
     <use xlink:href="#DejaVuSans-Oblique-6c" transform="translate(77.490234 0)"/>
     <use xlink:href="#DejaVuSans-Oblique-6f" transform="translate(105.273438 0)"/>
     <use xlink:href="#DejaVuSans-Oblique-62" transform="translate(166.455078 0)"/>
     <use xlink:href="#DejaVuSans-Oblique-61" transform="translate(229.931641 0)"/>
     <use xlink:href="#DejaVuSans-Oblique-6c" transform="translate(291.210938 0)"/>
     <use xlink:href="#DejaVuSans-Oblique-20" transform="translate(318.994141 0)"/>
     <use xlink:href="#DejaVuSans-Oblique-41" transform="translate(350.78125 0)"/>
     <use xlink:href="#DejaVuSans-Oblique-76" transform="translate(419.189453 0)"/>
     <use xlink:href="#DejaVuSans-Oblique-67" transform="translate(478.369141 0)"/>
     <use xlink:href="#DejaVuSans-Oblique-20" transform="translate(541.845703 0)"/>
     <use xlink:href="#DejaVuSans-Oblique-50" transform="translate(573.632812 0)"/>
     <use xlink:href="#DejaVuSans-Oblique-6f" transform="translate(633.935547 0)"/>
     <use xlink:href="#DejaVuSans-Oblique-6f" transform="translate(695.117188 0)"/>
     <use xlink:href="#DejaVuSans-Oblique-6c" transform="translate(756.298828 0)"/>
     <use xlink:href="#DejaVuSans-Oblique-69" transform="translate(784.082031 0)"/>
     <use xlink:href="#DejaVuSans-Oblique-6e" transform="translate(811.865234 0)"/>
     <use xlink:href="#DejaVuSans-Oblique-67" transform="translate(875.244141 0)"/>
    </g>
   </g>
   <g id="text_5">
    <!-- Question Input -->
    <g transform="translate(38.381161 278.912651) scale(0.13 -0.13)">
     <defs>
      <path id="DejaVuSans-Bold-51" d="M 2847 -84 
L 2753 -84 
Q 1600 -84 959 553 
Q 319 1191 319 2328 
Q 319 3463 958 4106 
Q 1597 4750 2719 4750 
Q 3853 4750 4486 4112 
Q 5119 3475 5119 2328 
Q 5119 1541 4783 972 
Q 4447 403 3816 116 
L 4756 -934 
L 3609 -934 
L 2847 -84 
z
M 2719 3878 
Q 2169 3878 1866 3472 
Q 1563 3066 1563 2328 
Q 1563 1578 1859 1179 
Q 2156 781 2719 781 
Q 3272 781 3575 1187 
Q 3878 1594 3878 2328 
Q 3878 3066 3575 3472 
Q 3272 3878 2719 3878 
z
" transform="scale(0.015625)"/>
      <path id="DejaVuSans-Bold-73" d="M 3272 3391 
L 3272 2541 
Q 2913 2691 2578 2766 
Q 2244 2841 1947 2841 
Q 1628 2841 1473 2761 
Q 1319 2681 1319 2516 
Q 1319 2381 1436 2309 
Q 1553 2238 1856 2203 
L 2053 2175 
Q 2913 2066 3209 1816 
Q 3506 1566 3506 1031 
Q 3506 472 3093 190 
Q 2681 -91 1863 -91 
Q 1516 -91 1145 -36 
Q 775 19 384 128 
L 384 978 
Q 719 816 1070 734 
Q 1422 653 1784 653 
Q 2113 653 2278 743 
Q 2444 834 2444 1013 
Q 2444 1163 2330 1236 
Q 2216 1309 1875 1350 
L 1678 1375 
Q 931 1469 631 1722 
Q 331 1975 331 2491 
Q 331 3047 712 3315 
Q 1094 3584 1881 3584 
Q 2191 3584 2531 3537 
Q 2872 3491 3272 3391 
z
" transform="scale(0.015625)"/>
      <path id="DejaVuSans-Bold-69" d="M 538 3500 
L 1656 3500 
L 1656 0 
L 538 0 
L 538 3500 
z
M 538 4863 
L 1656 4863 
L 1656 3950 
L 538 3950 
L 538 4863 
z
" transform="scale(0.015625)"/>
     </defs>
     <use xlink:href="#DejaVuSans-Bold-51"/>
     <use xlink:href="#DejaVuSans-Bold-75" transform="translate(85.009766 0)"/>
     <use xlink:href="#DejaVuSans-Bold-65" transform="translate(156.201172 0)"/>
     <use xlink:href="#DejaVuSans-Bold-73" transform="translate(224.023438 0)"/>
     <use xlink:href="#DejaVuSans-Bold-74" transform="translate(283.544922 0)"/>
     <use xlink:href="#DejaVuSans-Bold-69" transform="translate(331.347656 0)"/>
     <use xlink:href="#DejaVuSans-Bold-6f" transform="translate(365.625 0)"/>
     <use xlink:href="#DejaVuSans-Bold-6e" transform="translate(434.326172 0)"/>
     <use xlink:href="#DejaVuSans-Bold-20" transform="translate(505.517578 0)"/>
     <use xlink:href="#DejaVuSans-Bold-49" transform="translate(540.332031 0)"/>
     <use xlink:href="#DejaVuSans-Bold-6e" transform="translate(577.539062 0)"/>
     <use xlink:href="#DejaVuSans-Bold-70" transform="translate(648.730469 0)"/>
     <use xlink:href="#DejaVuSans-Bold-75" transform="translate(720.3125 0)"/>
     <use xlink:href="#DejaVuSans-Bold-74" transform="translate(791.503906 0)"/>
    </g>
   </g>
   <g id="text_6">
    <!-- One-hot template ID [31] -->
    <g style="fill: #333333" transform="translate(23.523583 304.435259) scale(0.11 -0.11)">
     <defs>
      <path id="DejaVuSans-Oblique-4f" d="M 2919 4238 
Q 2400 4238 2003 3986 
Q 1606 3734 1313 3219 
Q 1125 2891 1026 2522 
Q 928 2153 928 1778 
Q 928 1128 1239 775 
Q 1550 422 2119 422 
Q 2631 422 3032 676 
Q 3434 931 3719 1434 
Q 3909 1772 4009 2142 
Q 4109 2513 4109 2881 
Q 4109 3528 3796 3883 
Q 3484 4238 2919 4238 
z
M 2100 -91 
Q 1241 -91 748 418 
Q 256 928 256 1813 
Q 256 2319 448 2847 
Q 641 3375 978 3788 
Q 1375 4272 1862 4511 
Q 2350 4750 2938 4750 
Q 3794 4750 4287 4245 
Q 4781 3741 4781 2869 
Q 4781 2331 4593 1812 
Q 4406 1294 4056 872 
Q 3656 384 3173 146 
Q 2691 -91 2100 -91 
z
" transform="scale(0.015625)"/>
      <path id="DejaVuSans-Oblique-65" d="M 3078 2063 
Q 3088 2113 3092 2166 
Q 3097 2219 3097 2272 
Q 3097 2653 2873 2875 
Q 2650 3097 2266 3097 
Q 1838 3097 1509 2826 
Q 1181 2556 1013 2059 
L 3078 2063 
z
M 3578 1613 
L 903 1613 
Q 884 1494 878 1425 
Q 872 1356 872 1306 
Q 872 872 1139 634 
Q 1406 397 1894 397 
Q 2269 397 2603 481 
Q 2938 566 3225 728 
L 3116 159 
Q 2806 34 2476 -28 
Q 2147 -91 1806 -91 
Q 1078 -91 686 257 
Q 294 606 294 1247 
Q 294 1794 489 2264 
Q 684 2734 1063 3103 
Q 1306 3334 1642 3459 
Q 1978 3584 2356 3584 
Q 2950 3584 3301 3228 
Q 3653 2872 3653 2272 
Q 3653 2128 3634 1964 
Q 3616 1800 3578 1613 
z
" transform="scale(0.015625)"/>
      <path id="DejaVuSans-Oblique-2d" d="M 391 2009 
L 2075 2009 
L 1978 1497 
L 288 1497 
L 391 2009 
z
" transform="scale(0.015625)"/>
      <path id="DejaVuSans-Oblique-68" d="M 3566 2113 
L 3156 0 
L 2578 0 
L 2988 2091 
Q 3016 2238 3031 2350 
Q 3047 2463 3047 2528 
Q 3047 2791 2881 2937 
Q 2716 3084 2419 3084 
Q 1956 3084 1617 2771 
Q 1278 2459 1178 1941 
L 800 0 
L 225 0 
L 1172 4863 
L 1747 4863 
L 1375 2950 
Q 1594 3244 1934 3414 
Q 2275 3584 2650 3584 
Q 3113 3584 3367 3334 
Q 3622 3084 3622 2631 
Q 3622 2519 3608 2391 
Q 3594 2263 3566 2113 
z
" transform="scale(0.015625)"/>
      <path id="DejaVuSans-Oblique-74" d="M 2706 3500 
L 2619 3053 
L 1472 3053 
L 1100 1153 
Q 1081 1047 1072 975 
Q 1063 903 1063 863 
Q 1063 663 1183 572 
Q 1303 481 1569 481 
L 2150 481 
L 2053 0 
L 1503 0 
Q 991 0 739 200 
Q 488 400 488 806 
Q 488 878 497 964 
Q 506 1050 525 1153 
L 897 3053 
L 409 3053 
L 500 3500 
L 978 3500 
L 1172 4494 
L 1747 4494 
L 1556 3500 
L 2706 3500 
z
" transform="scale(0.015625)"/>
      <path id="DejaVuSans-Oblique-6d" d="M 5747 2113 
L 5338 0 
L 4763 0 
L 5166 2094 
Q 5191 2228 5203 2325 
Q 5216 2422 5216 2491 
Q 5216 2772 5059 2928 
Q 4903 3084 4622 3084 
Q 4203 3084 3875 2770 
Q 3547 2456 3450 1953 
L 3066 0 
L 2491 0 
L 2900 2094 
Q 2925 2209 2937 2307 
Q 2950 2406 2950 2484 
Q 2950 2769 2794 2926 
Q 2638 3084 2363 3084 
Q 1938 3084 1609 2770 
Q 1281 2456 1184 1953 
L 800 0 
L 225 0 
L 909 3500 
L 1484 3500 
L 1375 2956 
Q 1609 3263 1923 3423 
Q 2238 3584 2597 3584 
Q 2978 3584 3223 3384 
Q 3469 3184 3519 2828 
Q 3781 3197 4126 3390 
Q 4472 3584 4856 3584 
Q 5306 3584 5551 3325 
Q 5797 3066 5797 2591 
Q 5797 2488 5784 2364 
Q 5772 2241 5747 2113 
z
" transform="scale(0.015625)"/>
      <path id="DejaVuSans-Oblique-70" d="M 3175 2156 
Q 3175 2616 2975 2859 
Q 2775 3103 2400 3103 
Q 2144 3103 1911 2972 
Q 1678 2841 1497 2591 
Q 1319 2344 1212 1994 
Q 1106 1644 1106 1300 
Q 1106 863 1306 627 
Q 1506 391 1875 391 
Q 2147 391 2380 519 
Q 2613 647 2778 891 
Q 2956 1147 3065 1494 
Q 3175 1841 3175 2156 
z
M 1394 2969 
Q 1625 3272 1939 3428 
Q 2253 3584 2638 3584 
Q 3175 3584 3472 3232 
Q 3769 2881 3769 2247 
Q 3769 1728 3584 1258 
Q 3400 788 3053 416 
Q 2822 169 2531 39 
Q 2241 -91 1919 -91 
Q 1547 -91 1294 64 
Q 1041 219 916 525 
L 556 -1331 
L -19 -1331 
L 922 3500 
L 1497 3500 
L 1394 2969 
z
" transform="scale(0.015625)"/>
      <path id="DejaVuSans-Oblique-49" d="M 1081 4666 
L 1716 4666 
L 806 0 
L 172 0 
L 1081 4666 
z
" transform="scale(0.015625)"/>
      <path id="DejaVuSans-Oblique-44" d="M 1081 4666 
L 2438 4666 
Q 3519 4666 4070 4208 
Q 4622 3750 4622 2847 
Q 4622 2250 4412 1698 
Q 4203 1147 3834 769 
Q 3463 381 2891 190 
Q 2319 0 1538 0 
L 172 0 
L 1081 4666 
z
M 1613 4147 
L 909 519 
L 1734 519 
Q 2794 519 3375 1128 
Q 3956 1738 3956 2847 
Q 3956 3519 3581 3833 
Q 3206 4147 2406 4147 
L 1613 4147 
z
" transform="scale(0.015625)"/>
      <path id="DejaVuSans-Oblique-5b" d="M 1363 4863 
L 2688 4863 
L 2597 4416 
L 1850 4416 
L 916 -397 
L 1663 -397 
L 1581 -844 
L 256 -844 
L 1363 4863 
z
" transform="scale(0.015625)"/>
      <path id="DejaVuSans-Oblique-5d" d="M 2188 4863 
L 1081 -844 
L -244 -844 
L -159 -397 
L 588 -397 
L 1522 4416 
L 781 4416 
L 863 4863 
L 2188 4863 
z
" transform="scale(0.015625)"/>
     </defs>
     <use xlink:href="#DejaVuSans-Oblique-4f"/>
     <use xlink:href="#DejaVuSans-Oblique-6e" transform="translate(78.710938 0)"/>
     <use xlink:href="#DejaVuSans-Oblique-65" transform="translate(142.089844 0)"/>
     <use xlink:href="#DejaVuSans-Oblique-2d" transform="translate(203.613281 0)"/>
     <use xlink:href="#DejaVuSans-Oblique-68" transform="translate(239.697266 0)"/>
     <use xlink:href="#DejaVuSans-Oblique-6f" transform="translate(303.076172 0)"/>
     <use xlink:href="#DejaVuSans-Oblique-74" transform="translate(364.257812 0)"/>
     <use xlink:href="#DejaVuSans-Oblique-20" transform="translate(403.466797 0)"/>
     <use xlink:href="#DejaVuSans-Oblique-74" transform="translate(435.253906 0)"/>
     <use xlink:href="#DejaVuSans-Oblique-65" transform="translate(474.462891 0)"/>
     <use xlink:href="#DejaVuSans-Oblique-6d" transform="translate(535.986328 0)"/>
     <use xlink:href="#DejaVuSans-Oblique-70" transform="translate(633.398438 0)"/>
     <use xlink:href="#DejaVuSans-Oblique-6c" transform="translate(696.875 0)"/>
     <use xlink:href="#DejaVuSans-Oblique-61" transform="translate(724.658203 0)"/>
     <use xlink:href="#DejaVuSans-Oblique-74" transform="translate(785.9375 0)"/>
     <use xlink:href="#DejaVuSans-Oblique-65" transform="translate(825.146484 0)"/>
     <use xlink:href="#DejaVuSans-Oblique-20" transform="translate(886.669922 0)"/>
     <use xlink:href="#DejaVuSans-Oblique-49" transform="translate(918.457031 0)"/>
     <use xlink:href="#DejaVuSans-Oblique-44" transform="translate(947.949219 0)"/>
     <use xlink:href="#DejaVuSans-Oblique-20" transform="translate(1024.951172 0)"/>
     <use xlink:href="#DejaVuSans-Oblique-5b" transform="translate(1056.738281 0)"/>
     <use xlink:href="#DejaVuSans-Oblique-33" transform="translate(1095.751953 0)"/>
     <use xlink:href="#DejaVuSans-Oblique-31" transform="translate(1159.375 0)"/>
     <use xlink:href="#DejaVuSans-Oblique-5d" transform="translate(1222.998047 0)"/>
    </g>
   </g>
   <g id="patch_10">
    <path d="M 148.049441 284.353394 
Q 179.79394 284.353394 211.538439 284.353394 
L 211.538439 281.103394 
Q 216.537272 283.103394 221.536106 285.103394 
Q 216.537272 287.103394 211.538439 289.103394 
L 211.538439 285.853394 
Q 179.79394 285.853394 148.049441 285.853394 
L 148.049441 284.353394 
z
" style="stroke: #000000; stroke-linecap: round"/>
   </g>
   <g id="text_7">
    <!-- Question Encoder -->
    <g transform="translate(273.115461 278.912651) scale(0.13 -0.13)">
     <use xlink:href="#DejaVuSans-Bold-51"/>
     <use xlink:href="#DejaVuSans-Bold-75" transform="translate(85.009766 0)"/>
     <use xlink:href="#DejaVuSans-Bold-65" transform="translate(156.201172 0)"/>
     <use xlink:href="#DejaVuSans-Bold-73" transform="translate(224.023438 0)"/>
     <use xlink:href="#DejaVuSans-Bold-74" transform="translate(283.544922 0)"/>
     <use xlink:href="#DejaVuSans-Bold-69" transform="translate(331.347656 0)"/>
     <use xlink:href="#DejaVuSans-Bold-6f" transform="translate(365.625 0)"/>
     <use xlink:href="#DejaVuSans-Bold-6e" transform="translate(434.326172 0)"/>
     <use xlink:href="#DejaVuSans-Bold-20" transform="translate(505.517578 0)"/>
     <use xlink:href="#DejaVuSans-Bold-45" transform="translate(540.332031 0)"/>
     <use xlink:href="#DejaVuSans-Bold-6e" transform="translate(608.642578 0)"/>
     <use xlink:href="#DejaVuSans-Bold-63" transform="translate(679.833984 0)"/>
     <use xlink:href="#DejaVuSans-Bold-6f" transform="translate(739.111328 0)"/>
     <use xlink:href="#DejaVuSans-Bold-64" transform="translate(807.8125 0)"/>
     <use xlink:href="#DejaVuSans-Bold-65" transform="translate(879.394531 0)"/>
     <use xlink:href="#DejaVuSans-Bold-72" transform="translate(947.216797 0)"/>
    </g>
   </g>
   <g id="text_8">
    <!-- Linear projection -->
    <g style="fill: #333333" transform="translate(291.45882 304.435259) scale(0.11 -0.11)">
     <defs>
      <path id="DejaVuSans-Oblique-4c" d="M 1075 4666 
L 1709 4666 
L 909 525 
L 3181 525 
L 3078 0 
L 172 0 
L 1075 4666 
z
" transform="scale(0.015625)"/>
      <path id="DejaVuSans-Oblique-72" d="M 2853 2969 
Q 2766 3016 2653 3041 
Q 2541 3066 2413 3066 
Q 1953 3066 1609 2717 
Q 1266 2369 1153 1784 
L 800 0 
L 225 0 
L 909 3500 
L 1484 3500 
L 1375 2956 
Q 1603 3259 1920 3421 
Q 2238 3584 2597 3584 
Q 2691 3584 2781 3573 
Q 2872 3563 2963 3538 
L 2853 2969 
z
" transform="scale(0.015625)"/>
      <path id="DejaVuSans-Oblique-6a" d="M 928 3500 
L 1503 3500 
L 813 -63 
L 809 -78 
Q 694 -675 544 -897 
Q 403 -1106 132 -1218 
Q -138 -1331 -506 -1331 
L -722 -1331 
L -628 -844 
L -481 -844 
Q -144 -844 -1 -703 
Q 141 -563 238 -63 
L 928 3500 
z
M 1197 4863 
L 1772 4863 
L 1631 4134 
L 1056 4134 
L 1197 4863 
z
" transform="scale(0.015625)"/>
     </defs>
     <use xlink:href="#DejaVuSans-Oblique-4c"/>
     <use xlink:href="#DejaVuSans-Oblique-69" transform="translate(55.712891 0)"/>
     <use xlink:href="#DejaVuSans-Oblique-6e" transform="translate(83.496094 0)"/>
     <use xlink:href="#DejaVuSans-Oblique-65" transform="translate(146.875 0)"/>
     <use xlink:href="#DejaVuSans-Oblique-61" transform="translate(208.398438 0)"/>
     <use xlink:href="#DejaVuSans-Oblique-72" transform="translate(269.677734 0)"/>
     <use xlink:href="#DejaVuSans-Oblique-20" transform="translate(310.791016 0)"/>
     <use xlink:href="#DejaVuSans-Oblique-70" transform="translate(342.578125 0)"/>
     <use xlink:href="#DejaVuSans-Oblique-72" transform="translate(406.054688 0)"/>
     <use xlink:href="#DejaVuSans-Oblique-6f" transform="translate(447.167969 0)"/>
     <use xlink:href="#DejaVuSans-Oblique-6a" transform="translate(508.349609 0)"/>
     <use xlink:href="#DejaVuSans-Oblique-65" transform="translate(536.132812 0)"/>
     <use xlink:href="#DejaVuSans-Oblique-63" transform="translate(597.65625 0)"/>
     <use xlink:href="#DejaVuSans-Oblique-74" transform="translate(652.636719 0)"/>
     <use xlink:href="#DejaVuSans-Oblique-69" transform="translate(691.845703 0)"/>
     <use xlink:href="#DejaVuSans-Oblique-6f" transform="translate(719.628906 0)"/>
     <use xlink:href="#DejaVuSans-Oblique-6e" transform="translate(780.810547 0)"/>
    </g>
   </g>
   <g id="patch_11">
    <path d="M 454.66564 88.924599 
Q 505.644659 123.593911 556.623678 158.263224 
L 558.451315 155.5758 
Q 561.462595 160.042356 564.473875 164.508912 
Q 559.213196 163.349954 553.952517 162.190996 
L 555.780154 159.503573 
Q 504.801135 124.834261 453.822116 90.164948 
L 454.66564 88.924599 
z
" style="stroke: #000000; stroke-linecap: round"/>
   </g>
   <g id="text_9">
    <g id="patch_12">
     <path d="M 472.184189 122.196476 
L 546.533564 122.196476 
Q 548.933564 122.196476 548.933564 119.796476 
L 548.933564 108.182726 
Q 548.933564 105.782726 546.533564 105.782726 
L 472.184189 105.782726 
Q 469.784189 105.782726 469.784189 108.182726 
L 469.784189 119.796476 
Q 469.784189 122.196476 472.184189 122.196476 
z
" style="fill: #ffffff; opacity: 0.8"/>
    </g>
    <!-- 96-d feature -->
    <g style="fill: #333333" transform="translate(472.184189 117.300851) scale(0.12 -0.12)">
     <defs>
      <path id="DejaVuSans-39" d="M 703 97 
L 703 672 
Q 941 559 1184 500 
Q 1428 441 1663 441 
Q 2288 441 2617 861 
Q 2947 1281 2994 2138 
Q 2813 1869 2534 1725 
Q 2256 1581 1919 1581 
Q 1219 1581 811 2004 
Q 403 2428 403 3163 
Q 403 3881 828 4315 
Q 1253 4750 1959 4750 
Q 2769 4750 3195 4129 
Q 3622 3509 3622 2328 
Q 3622 1225 3098 567 
Q 2575 -91 1691 -91 
Q 1453 -91 1209 -44 
Q 966 3 703 97 
z
M 1959 2075 
Q 2384 2075 2632 2365 
Q 2881 2656 2881 3163 
Q 2881 3666 2632 3958 
Q 2384 4250 1959 4250 
Q 1534 4250 1286 3958 
Q 1038 3666 1038 3163 
Q 1038 2656 1286 2365 
Q 1534 2075 1959 2075 
z
" transform="scale(0.015625)"/>
      <path id="DejaVuSans-36" d="M 2113 2584 
Q 1688 2584 1439 2293 
Q 1191 2003 1191 1497 
Q 1191 994 1439 701 
Q 1688 409 2113 409 
Q 2538 409 2786 701 
Q 3034 994 3034 1497 
Q 3034 2003 2786 2293 
Q 2538 2584 2113 2584 
z
M 3366 4563 
L 3366 3988 
Q 3128 4100 2886 4159 
Q 2644 4219 2406 4219 
Q 1781 4219 1451 3797 
Q 1122 3375 1075 2522 
Q 1259 2794 1537 2939 
Q 1816 3084 2150 3084 
Q 2853 3084 3261 2657 
Q 3669 2231 3669 1497 
Q 3669 778 3244 343 
Q 2819 -91 2113 -91 
Q 1303 -91 875 529 
Q 447 1150 447 2328 
Q 447 3434 972 4092 
Q 1497 4750 2381 4750 
Q 2619 4750 2861 4703 
Q 3103 4656 3366 4563 
z
" transform="scale(0.015625)"/>
      <path id="DejaVuSans-2d" d="M 313 2009 
L 1997 2009 
L 1997 1497 
L 313 1497 
L 313 2009 
z
" transform="scale(0.015625)"/>
      <path id="DejaVuSans-64" d="M 2906 2969 
L 2906 4863 
L 3481 4863 
L 3481 0 
L 2906 0 
L 2906 525 
Q 2725 213 2448 61 
Q 2172 -91 1784 -91 
Q 1150 -91 751 415 
Q 353 922 353 1747 
Q 353 2572 751 3078 
Q 1150 3584 1784 3584 
Q 2172 3584 2448 3432 
Q 2725 3281 2906 2969 
z
M 947 1747 
Q 947 1113 1208 752 
Q 1469 391 1925 391 
Q 2381 391 2643 752 
Q 2906 1113 2906 1747 
Q 2906 2381 2643 2742 
Q 2381 3103 1925 3103 
Q 1469 3103 1208 2742 
Q 947 2381 947 1747 
z
" transform="scale(0.015625)"/>
      <path id="DejaVuSans-20" transform="scale(0.015625)"/>
      <path id="DejaVuSans-66" d="M 2375 4863 
L 2375 4384 
L 1825 4384 
Q 1516 4384 1395 4259 
Q 1275 4134 1275 3809 
L 1275 3500 
L 2222 3500 
L 2222 3053 
L 1275 3053 
L 1275 0 
L 697 0 
L 697 3053 
L 147 3053 
L 147 3500 
L 697 3500 
L 697 3744 
Q 697 4328 969 4595 
Q 1241 4863 1831 4863 
L 2375 4863 
z
" transform="scale(0.015625)"/>
      <path id="DejaVuSans-65" d="M 3597 1894 
L 3597 1613 
L 953 1613 
Q 991 1019 1311 708 
Q 1631 397 2203 397 
Q 2534 397 2845 478 
Q 3156 559 3463 722 
L 3463 178 
Q 3153 47 2828 -22 
Q 2503 -91 2169 -91 
Q 1331 -91 842 396 
Q 353 884 353 1716 
Q 353 2575 817 3079 
Q 1281 3584 2069 3584 
Q 2775 3584 3186 3129 
Q 3597 2675 3597 1894 
z
M 3022 2063 
Q 3016 2534 2758 2815 
Q 2500 3097 2075 3097 
Q 1594 3097 1305 2825 
Q 1016 2553 972 2059 
L 3022 2063 
z
" transform="scale(0.015625)"/>
      <path id="DejaVuSans-61" d="M 2194 1759 
Q 1497 1759 1228 1600 
Q 959 1441 959 1056 
Q 959 750 1161 570 
Q 1363 391 1709 391 
Q 2188 391 2477 730 
Q 2766 1069 2766 1631 
L 2766 1759 
L 2194 1759 
z
M 3341 1997 
L 3341 0 
L 2766 0 
L 2766 531 
Q 2569 213 2275 61 
Q 1981 -91 1556 -91 
Q 1019 -91 701 211 
Q 384 513 384 1019 
Q 384 1609 779 1909 
Q 1175 2209 1959 2209 
L 2766 2209 
L 2766 2266 
Q 2766 2663 2505 2880 
Q 2244 3097 1772 3097 
Q 1472 3097 1187 3025 
Q 903 2953 641 2809 
L 641 3341 
Q 956 3463 1253 3523 
Q 1550 3584 1831 3584 
Q 2591 3584 2966 3190 
Q 3341 2797 3341 1997 
z
" transform="scale(0.015625)"/>
      <path id="DejaVuSans-74" d="M 1172 4494 
L 1172 3500 
L 2356 3500 
L 2356 3053 
L 1172 3053 
L 1172 1153 
Q 1172 725 1289 603 
Q 1406 481 1766 481 
L 2356 481 
L 2356 0 
L 1766 0 
Q 1100 0 847 248 
Q 594 497 594 1153 
L 594 3053 
L 172 3053 
L 172 3500 
L 594 3500 
L 594 4494 
L 1172 4494 
z
" transform="scale(0.015625)"/>
      <path id="DejaVuSans-75" d="M 544 1381 
L 544 3500 
L 1119 3500 
L 1119 1403 
Q 1119 906 1312 657 
Q 1506 409 1894 409 
Q 2359 409 2629 706 
Q 2900 1003 2900 1516 
L 2900 3500 
L 3475 3500 
L 3475 0 
L 2900 0 
L 2900 538 
Q 2691 219 2414 64 
Q 2138 -91 1772 -91 
Q 1169 -91 856 284 
Q 544 659 544 1381 
z
M 1991 3584 
L 1991 3584 
z
" transform="scale(0.015625)"/>
      <path id="DejaVuSans-72" d="M 2631 2963 
Q 2534 3019 2420 3045 
Q 2306 3072 2169 3072 
Q 1681 3072 1420 2755 
Q 1159 2438 1159 1844 
L 1159 0 
L 581 0 
L 581 3500 
L 1159 3500 
L 1159 2956 
Q 1341 3275 1631 3429 
Q 1922 3584 2338 3584 
Q 2397 3584 2469 3576 
Q 2541 3569 2628 3553 
L 2631 2963 
z
" transform="scale(0.015625)"/>
     </defs>
     <use xlink:href="#DejaVuSans-39"/>
     <use xlink:href="#DejaVuSans-36" transform="translate(63.623047 0)"/>
     <use xlink:href="#DejaVuSans-2d" transform="translate(127.246094 0)"/>
     <use xlink:href="#DejaVuSans-64" transform="translate(163.330078 0)"/>
     <use xlink:href="#DejaVuSans-20" transform="translate(226.806641 0)"/>
     <use xlink:href="#DejaVuSans-66" transform="translate(258.59375 0)"/>
     <use xlink:href="#DejaVuSans-65" transform="translate(293.798828 0)"/>
     <use xlink:href="#DejaVuSans-61" transform="translate(355.322266 0)"/>
     <use xlink:href="#DejaVuSans-74" transform="translate(416.601562 0)"/>
     <use xlink:href="#DejaVuSans-75" transform="translate(455.810547 0)"/>
     <use xlink:href="#DejaVuSans-72" transform="translate(519.189453 0)"/>
     <use xlink:href="#DejaVuSans-65" transform="translate(558.052734 0)"/>
    </g>
   </g>
   <g id="patch_13">
    <path d="M 453.822116 284.48322 
Q 504.801135 249.813907 555.780154 215.144595 
L 553.952517 212.457172 
Q 559.213196 211.298214 564.473875 210.139256 
Q 561.462595 214.605812 558.451315 219.072368 
L 556.623678 216.384944 
Q 505.644659 251.054257 454.66564 285.723569 
L 453.822116 284.48322 
z
" style="stroke: #000000; stroke-linecap: round"/>
   </g>
   <g id="text_10">
    <g id="patch_14">
     <path d="M 472.184189 242.790959 
L 546.533564 242.790959 
Q 548.933564 242.790959 548.933564 240.390959 
L 548.933564 228.777209 
Q 548.933564 226.377209 546.533564 226.377209 
L 472.184189 226.377209 
Q 469.784189 226.377209 469.784189 228.777209 
L 469.784189 240.390959 
Q 469.784189 242.790959 472.184189 242.790959 
z
" style="fill: #ffffff; opacity: 0.8"/>
    </g>
    <!-- 16-d feature -->
    <g style="fill: #333333" transform="translate(472.184189 237.895334) scale(0.12 -0.12)">
     <defs>
      <path id="DejaVuSans-31" d="M 794 531 
L 1825 531 
L 1825 4091 
L 703 3866 
L 703 4441 
L 1819 4666 
L 2450 4666 
L 2450 531 
L 3481 531 
L 3481 0 
L 794 0 
L 794 531 
z
" transform="scale(0.015625)"/>
     </defs>
     <use xlink:href="#DejaVuSans-31"/>
     <use xlink:href="#DejaVuSans-36" transform="translate(63.623047 0)"/>
     <use xlink:href="#DejaVuSans-2d" transform="translate(127.246094 0)"/>
     <use xlink:href="#DejaVuSans-64" transform="translate(163.330078 0)"/>
     <use xlink:href="#DejaVuSans-20" transform="translate(226.806641 0)"/>
     <use xlink:href="#DejaVuSans-66" transform="translate(258.59375 0)"/>
     <use xlink:href="#DejaVuSans-65" transform="translate(293.798828 0)"/>
     <use xlink:href="#DejaVuSans-61" transform="translate(355.322266 0)"/>
     <use xlink:href="#DejaVuSans-74" transform="translate(416.601562 0)"/>
     <use xlink:href="#DejaVuSans-75" transform="translate(455.810547 0)"/>
     <use xlink:href="#DejaVuSans-72" transform="translate(519.189453 0)"/>
     <use xlink:href="#DejaVuSans-65" transform="translate(558.052734 0)"/>
    </g>
   </g>
   <g id="text_11">
    <!-- Fusion -->
    <g transform="translate(601.780575 173.854762) scale(0.13 -0.13)">
     <defs>
      <path id="DejaVuSans-Bold-46" d="M 588 4666 
L 3834 4666 
L 3834 3756 
L 1791 3756 
L 1791 2888 
L 3713 2888 
L 3713 1978 
L 1791 1978 
L 1791 0 
L 588 0 
L 588 4666 
z
" transform="scale(0.015625)"/>
     </defs>
     <use xlink:href="#DejaVuSans-Bold-46"/>
     <use xlink:href="#DejaVuSans-Bold-75" transform="translate(63.310547 0)"/>
     <use xlink:href="#DejaVuSans-Bold-73" transform="translate(134.501953 0)"/>
     <use xlink:href="#DejaVuSans-Bold-69" transform="translate(194.023438 0)"/>
     <use xlink:href="#DejaVuSans-Bold-6f" transform="translate(228.300781 0)"/>
     <use xlink:href="#DejaVuSans-Bold-6e" transform="translate(297.001953 0)"/>
    </g>
    <!-- (Concat) -->
    <g transform="translate(594.561513 188.411919) scale(0.13 -0.13)">
     <use xlink:href="#DejaVuSans-Bold-28"/>
     <use xlink:href="#DejaVuSans-Bold-43" transform="translate(45.703125 0)"/>
     <use xlink:href="#DejaVuSans-Bold-6f" transform="translate(119.091797 0)"/>
     <use xlink:href="#DejaVuSans-Bold-6e" transform="translate(187.792969 0)"/>
     <use xlink:href="#DejaVuSans-Bold-63" transform="translate(258.984375 0)"/>
     <use xlink:href="#DejaVuSans-Bold-61" transform="translate(318.261719 0)"/>
     <use xlink:href="#DejaVuSans-Bold-74" transform="translate(385.742188 0)"/>
     <use xlink:href="#DejaVuSans-Bold-29" transform="translate(433.544922 0)"/>
    </g>
   </g>
   <g id="text_12">
    <!-- 112-d -->
    <g style="fill: #333333" transform="translate(609.7387 206.655948) scale(0.11 -0.11)">
     <defs>
      <path id="DejaVuSans-Oblique-64" d="M 2675 525 
Q 2444 222 2128 65 
Q 1813 -91 1428 -91 
Q 903 -91 598 267 
Q 294 625 294 1247 
Q 294 1766 478 2236 
Q 663 2706 1013 3078 
Q 1244 3325 1534 3454 
Q 1825 3584 2144 3584 
Q 2481 3584 2739 3421 
Q 2997 3259 3138 2956 
L 3513 4863 
L 4091 4863 
L 3144 0 
L 2566 0 
L 2675 525 
z
M 891 1350 
Q 891 897 1095 644 
Q 1300 391 1663 391 
Q 1931 391 2161 520 
Q 2391 650 2566 903 
Q 2750 1166 2856 1509 
Q 2963 1853 2963 2188 
Q 2963 2622 2758 2865 
Q 2553 3109 2194 3109 
Q 1922 3109 1687 2981 
Q 1453 2853 1288 2613 
Q 1106 2353 998 2009 
Q 891 1666 891 1350 
z
" transform="scale(0.015625)"/>
     </defs>
     <use xlink:href="#DejaVuSans-Oblique-31"/>
     <use xlink:href="#DejaVuSans-Oblique-31" transform="translate(63.623047 0)"/>
     <use xlink:href="#DejaVuSans-Oblique-32" transform="translate(127.246094 0)"/>
     <use xlink:href="#DejaVuSans-Oblique-2d" transform="translate(190.869141 0)"/>
     <use xlink:href="#DejaVuSans-Oblique-64" transform="translate(226.953125 0)"/>
    </g>
   </g>
   <g id="patch_15">
    <path d="M 686.95165 186.574084 
Q 718.696149 186.574084 750.440648 186.574084 
L 750.440648 183.324084 
Q 755.439481 185.324084 760.438315 187.324084 
Q 755.439481 189.324084 750.440648 191.324084 
L 750.440648 188.074084 
Q 718.696149 188.074084 686.95165 188.074084 
L 686.95165 186.574084 
z
" style="stroke: #000000; stroke-linecap: round"/>
   </g>
   <g id="text_13">
    <!-- MLP Classifier -->
    <g transform="translate(776.143357 181.133341) scale(0.13 -0.13)">
     <defs>
      <path id="DejaVuSans-Bold-4d" d="M 588 4666 
L 2119 4666 
L 3181 2169 
L 4250 4666 
L 5778 4666 
L 5778 0 
L 4641 0 
L 4641 3413 
L 3566 897 
L 2803 897 
L 1728 3413 
L 1728 0 
L 588 0 
L 588 4666 
z
" transform="scale(0.015625)"/>
      <path id="DejaVuSans-Bold-4c" d="M 588 4666 
L 1791 4666 
L 1791 909 
L 3903 909 
L 3903 0 
L 588 0 
L 588 4666 
z
" transform="scale(0.015625)"/>
      <path id="DejaVuSans-Bold-50" d="M 588 4666 
L 2584 4666 
Q 3475 4666 3951 4270 
Q 4428 3875 4428 3144 
Q 4428 2409 3951 2014 
Q 3475 1619 2584 1619 
L 1791 1619 
L 1791 0 
L 588 0 
L 588 4666 
z
M 1791 3794 
L 1791 2491 
L 2456 2491 
Q 2806 2491 2997 2661 
Q 3188 2831 3188 3144 
Q 3188 3456 2997 3625 
Q 2806 3794 2456 3794 
L 1791 3794 
z
" transform="scale(0.015625)"/>
      <path id="DejaVuSans-Bold-6c" d="M 538 4863 
L 1656 4863 
L 1656 0 
L 538 0 
L 538 4863 
z
" transform="scale(0.015625)"/>
      <path id="DejaVuSans-Bold-66" d="M 2841 4863 
L 2841 4128 
L 2222 4128 
Q 1984 4128 1890 4042 
Q 1797 3956 1797 3744 
L 1797 3500 
L 2753 3500 
L 2753 2700 
L 1797 2700 
L 1797 0 
L 678 0 
L 678 2700 
L 122 2700 
L 122 3500 
L 678 3500 
L 678 3744 
Q 678 4316 997 4589 
Q 1316 4863 1984 4863 
L 2841 4863 
z
" transform="scale(0.015625)"/>
     </defs>
     <use xlink:href="#DejaVuSans-Bold-4d"/>
     <use xlink:href="#DejaVuSans-Bold-4c" transform="translate(99.511719 0)"/>
     <use xlink:href="#DejaVuSans-Bold-50" transform="translate(163.232422 0)"/>
     <use xlink:href="#DejaVuSans-Bold-20" transform="translate(236.523438 0)"/>
     <use xlink:href="#DejaVuSans-Bold-43" transform="translate(271.337891 0)"/>
     <use xlink:href="#DejaVuSans-Bold-6c" transform="translate(344.726562 0)"/>
     <use xlink:href="#DejaVuSans-Bold-61" transform="translate(379.003906 0)"/>
     <use xlink:href="#DejaVuSans-Bold-73" transform="translate(446.484375 0)"/>
     <use xlink:href="#DejaVuSans-Bold-73" transform="translate(506.005859 0)"/>
     <use xlink:href="#DejaVuSans-Bold-69" transform="translate(565.527344 0)"/>
     <use xlink:href="#DejaVuSans-Bold-66" transform="translate(599.804688 0)"/>
     <use xlink:href="#DejaVuSans-Bold-69" transform="translate(643.310547 0)"/>
     <use xlink:href="#DejaVuSans-Bold-65" transform="translate(677.587891 0)"/>
     <use xlink:href="#DejaVuSans-Bold-72" transform="translate(745.410156 0)"/>
    </g>
   </g>
   <g id="text_14">
    <!-- Hidden: 96 -->
    <g style="fill: #333333" transform="translate(797.684294 206.655948) scale(0.11 -0.11)">
     <defs>
      <path id="DejaVuSans-Oblique-48" d="M 1081 4666 
L 1716 4666 
L 1344 2753 
L 3634 2753 
L 4006 4666 
L 4641 4666 
L 3731 0 
L 3097 0 
L 3531 2222 
L 1241 2222 
L 806 0 
L 172 0 
L 1081 4666 
z
" transform="scale(0.015625)"/>
     </defs>
     <use xlink:href="#DejaVuSans-Oblique-48"/>
     <use xlink:href="#DejaVuSans-Oblique-69" transform="translate(75.195312 0)"/>
     <use xlink:href="#DejaVuSans-Oblique-64" transform="translate(102.978516 0)"/>
     <use xlink:href="#DejaVuSans-Oblique-64" transform="translate(166.455078 0)"/>
     <use xlink:href="#DejaVuSans-Oblique-65" transform="translate(229.931641 0)"/>
     <use xlink:href="#DejaVuSans-Oblique-6e" transform="translate(291.455078 0)"/>
     <use xlink:href="#DejaVuSans-Oblique-3a" transform="translate(354.833984 0)"/>
     <use xlink:href="#DejaVuSans-Oblique-20" transform="translate(388.525391 0)"/>
     <use xlink:href="#DejaVuSans-Oblique-39" transform="translate(420.3125 0)"/>
     <use xlink:href="#DejaVuSans-Oblique-36" transform="translate(483.935547 0)"/>
    </g>
   </g>
   <g id="patch_16">
    <path d="M 895.163867 186.574084 
Q 936.093358 186.574084 977.022849 186.574084 
L 977.022849 183.324084 
Q 982.022524 185.324084 987.022198 187.324084 
Q 982.022524 189.324084 977.022849 191.324084 
L 977.022849 188.074084 
Q 936.093358 188.074084 895.163867 188.074084 
L 895.163867 186.574084 
z
" style="stroke: #000000; stroke-linecap: round"/>
   </g>
   <g id="text_15">
    <g id="patch_17">
     <path d="M 915.259283 179.234407 
L 966.926783 179.234407 
Q 969.326783 179.234407 969.326783 176.834407 
L 969.326783 165.220657 
Q 969.326783 162.820657 966.926783 162.820657 
L 915.259283 162.820657 
Q 912.859283 162.820657 912.859283 165.220657 
L 912.859283 176.834407 
Q 912.859283 179.234407 915.259283 179.234407 
z
" style="fill: #ffffff; opacity: 0.8"/>
    </g>
    <!-- 14 logits -->
    <g style="fill: #333333" transform="translate(915.259283 174.338782) scale(0.12 -0.12)">
     <defs>
      <path id="DejaVuSans-34" d="M 2419 4116 
L 825 1625 
L 2419 1625 
L 2419 4116 
z
M 2253 4666 
L 3047 4666 
L 3047 1625 
L 3713 1625 
L 3713 1100 
L 3047 1100 
L 3047 0 
L 2419 0 
L 2419 1100 
L 313 1100 
L 313 1709 
L 2253 4666 
z
" transform="scale(0.015625)"/>
      <path id="DejaVuSans-6c" d="M 603 4863 
L 1178 4863 
L 1178 0 
L 603 0 
L 603 4863 
z
" transform="scale(0.015625)"/>
      <path id="DejaVuSans-6f" d="M 1959 3097 
Q 1497 3097 1228 2736 
Q 959 2375 959 1747 
Q 959 1119 1226 758 
Q 1494 397 1959 397 
Q 2419 397 2687 759 
Q 2956 1122 2956 1747 
Q 2956 2369 2687 2733 
Q 2419 3097 1959 3097 
z
M 1959 3584 
Q 2709 3584 3137 3096 
Q 3566 2609 3566 1747 
Q 3566 888 3137 398 
Q 2709 -91 1959 -91 
Q 1206 -91 779 398 
Q 353 888 353 1747 
Q 353 2609 779 3096 
Q 1206 3584 1959 3584 
z
" transform="scale(0.015625)"/>
      <path id="DejaVuSans-67" d="M 2906 1791 
Q 2906 2416 2648 2759 
Q 2391 3103 1925 3103 
Q 1463 3103 1205 2759 
Q 947 2416 947 1791 
Q 947 1169 1205 825 
Q 1463 481 1925 481 
Q 2391 481 2648 825 
Q 2906 1169 2906 1791 
z
M 3481 434 
Q 3481 -459 3084 -895 
Q 2688 -1331 1869 -1331 
Q 1566 -1331 1297 -1286 
Q 1028 -1241 775 -1147 
L 775 -588 
Q 1028 -725 1275 -790 
Q 1522 -856 1778 -856 
Q 2344 -856 2625 -561 
Q 2906 -266 2906 331 
L 2906 616 
Q 2728 306 2450 153 
Q 2172 0 1784 0 
Q 1141 0 747 490 
Q 353 981 353 1791 
Q 353 2603 747 3093 
Q 1141 3584 1784 3584 
Q 2172 3584 2450 3431 
Q 2728 3278 2906 2969 
L 2906 3500 
L 3481 3500 
L 3481 434 
z
" transform="scale(0.015625)"/>
      <path id="DejaVuSans-69" d="M 603 3500 
L 1178 3500 
L 1178 0 
L 603 0 
L 603 3500 
z
M 603 4863 
L 1178 4863 
L 1178 4134 
L 603 4134 
L 603 4863 
z
" transform="scale(0.015625)"/>
      <path id="DejaVuSans-73" d="M 2834 3397 
L 2834 2853 
Q 2591 2978 2328 3040 
Q 2066 3103 1784 3103 
Q 1356 3103 1142 2972 
Q 928 2841 928 2578 
Q 928 2378 1081 2264 
Q 1234 2150 1697 2047 
L 1894 2003 
Q 2506 1872 2764 1633 
Q 3022 1394 3022 966 
Q 3022 478 2636 193 
Q 2250 -91 1575 -91 
Q 1294 -91 989 -36 
Q 684 19 347 128 
L 347 722 
Q 666 556 975 473 
Q 1284 391 1588 391 
Q 1994 391 2212 530 
Q 2431 669 2431 922 
Q 2431 1156 2273 1281 
Q 2116 1406 1581 1522 
L 1381 1569 
Q 847 1681 609 1914 
Q 372 2147 372 2553 
Q 372 3047 722 3315 
Q 1072 3584 1716 3584 
Q 2034 3584 2315 3537 
Q 2597 3491 2834 3397 
z
" transform="scale(0.015625)"/>
     </defs>
     <use xlink:href="#DejaVuSans-31"/>
     <use xlink:href="#DejaVuSans-34" transform="translate(63.623047 0)"/>
     <use xlink:href="#DejaVuSans-20" transform="translate(127.246094 0)"/>
     <use xlink:href="#DejaVuSans-6c" transform="translate(159.033203 0)"/>
     <use xlink:href="#DejaVuSans-6f" transform="translate(186.816406 0)"/>
     <use xlink:href="#DejaVuSans-67" transform="translate(247.998047 0)"/>
     <use xlink:href="#DejaVuSans-69" transform="translate(311.474609 0)"/>
     <use xlink:href="#DejaVuSans-74" transform="translate(339.257812 0)"/>
     <use xlink:href="#DejaVuSans-73" transform="translate(378.466797 0)"/>
    </g>
   </g>
   <g id="text_16">
    <!-- Prediction -->
    <g transform="translate(1004.59665 181.133341) scale(0.13 -0.13)">
     <use xlink:href="#DejaVuSans-Bold-50"/>
     <use xlink:href="#DejaVuSans-Bold-72" transform="translate(73.291016 0)"/>
     <use xlink:href="#DejaVuSans-Bold-65" transform="translate(122.607422 0)"/>
     <use xlink:href="#DejaVuSans-Bold-64" transform="translate(190.429688 0)"/>
     <use xlink:href="#DejaVuSans-Bold-69" transform="translate(262.011719 0)"/>
     <use xlink:href="#DejaVuSans-Bold-63" transform="translate(296.289062 0)"/>
     <use xlink:href="#DejaVuSans-Bold-74" transform="translate(355.566406 0)"/>
     <use xlink:href="#DejaVuSans-Bold-69" transform="translate(403.369141 0)"/>
     <use xlink:href="#DejaVuSans-Bold-6f" transform="translate(437.646484 0)"/>
     <use xlink:href="#DejaVuSans-Bold-6e" transform="translate(506.347656 0)"/>
    </g>
   </g>
   <g id="text_17">
    <!-- edge_global classes -->
    <g style="fill: #333333" transform="translate(987.210244 206.50298) scale(0.11 -0.11)">
     <defs>
      <path id="DejaVuSans-Oblique-5f" d="M 3263 -1063 
L 3263 -1509 
L -63 -1509 
L -63 -1063 
L 3263 -1063 
z
" transform="scale(0.015625)"/>
     </defs>
     <use xlink:href="#DejaVuSans-Oblique-65"/>
     <use xlink:href="#DejaVuSans-Oblique-64" transform="translate(61.523438 0)"/>
     <use xlink:href="#DejaVuSans-Oblique-67" transform="translate(125 0)"/>
     <use xlink:href="#DejaVuSans-Oblique-65" transform="translate(188.476562 0)"/>
     <use xlink:href="#DejaVuSans-Oblique-5f" transform="translate(250 0)"/>
     <use xlink:href="#DejaVuSans-Oblique-67" transform="translate(300 0)"/>
     <use xlink:href="#DejaVuSans-Oblique-6c" transform="translate(363.476562 0)"/>
     <use xlink:href="#DejaVuSans-Oblique-6f" transform="translate(391.259766 0)"/>
     <use xlink:href="#DejaVuSans-Oblique-62" transform="translate(452.441406 0)"/>
     <use xlink:href="#DejaVuSans-Oblique-61" transform="translate(515.917969 0)"/>
     <use xlink:href="#DejaVuSans-Oblique-6c" transform="translate(577.197266 0)"/>
     <use xlink:href="#DejaVuSans-Oblique-20" transform="translate(604.980469 0)"/>
     <use xlink:href="#DejaVuSans-Oblique-63" transform="translate(636.767578 0)"/>
     <use xlink:href="#DejaVuSans-Oblique-6c" transform="translate(691.748047 0)"/>
     <use xlink:href="#DejaVuSans-Oblique-61" transform="translate(719.53125 0)"/>
     <use xlink:href="#DejaVuSans-Oblique-73" transform="translate(780.810547 0)"/>
     <use xlink:href="#DejaVuSans-Oblique-73" transform="translate(832.910156 0)"/>
     <use xlink:href="#DejaVuSans-Oblique-65" transform="translate(885.009766 0)"/>
     <use xlink:href="#DejaVuSans-Oblique-73" transform="translate(946.533203 0)"/>
    </g>
   </g>
   <g id="text_18">
    <!-- Final deployed model: TDM-Fast @128, 91,902 params -->
    <g style="fill: #696969" transform="translate(37.819444 366.638093) scale(0.12 -0.12)">
     <defs>
      <path id="DejaVuSans-Oblique-46" d="M 1081 4666 
L 3756 4666 
L 3653 4134 
L 1606 4134 
L 1338 2759 
L 3188 2759 
L 3084 2228 
L 1234 2228 
L 800 0 
L 172 0 
L 1081 4666 
z
" transform="scale(0.015625)"/>
      <path id="DejaVuSans-Oblique-79" d="M 1588 -325 
Q 1188 -997 936 -1164 
Q 684 -1331 294 -1331 
L -159 -1331 
L -63 -850 
L 269 -850 
Q 509 -850 678 -719 
Q 847 -588 1056 -206 
L 1234 128 
L 459 3500 
L 1069 3500 
L 1650 819 
L 3256 3500 
L 3859 3500 
L 1588 -325 
z
" transform="scale(0.015625)"/>
      <path id="DejaVuSans-Oblique-54" d="M 378 4666 
L 4325 4666 
L 4225 4134 
L 2559 4134 
L 1759 0 
L 1125 0 
L 1925 4134 
L 275 4134 
L 378 4666 
z
" transform="scale(0.015625)"/>
      <path id="DejaVuSans-Oblique-4d" d="M 1081 4666 
L 2028 4666 
L 2572 1522 
L 4378 4666 
L 5350 4666 
L 4441 0 
L 3828 0 
L 4622 4091 
L 2791 897 
L 2175 897 
L 1581 4103 
L 788 0 
L 172 0 
L 1081 4666 
z
" transform="scale(0.015625)"/>
      <path id="DejaVuSans-Oblique-40" d="M 3916 744 
Q 3700 513 3448 394 
Q 3197 275 2925 275 
Q 2466 275 2164 584 
Q 1863 894 1863 1369 
Q 1863 2056 2327 2570 
Q 2791 3084 3413 3084 
Q 3700 3084 3926 2959 
Q 4153 2834 4275 2613 
L 4359 3022 
L 4806 3022 
L 4359 716 
Q 4913 803 5269 1278 
Q 5625 1753 5625 2406 
Q 5625 3134 5109 3595 
Q 4594 4056 3775 4056 
Q 3219 4056 2700 3861 
Q 2181 3666 1784 3309 
Q 1331 2891 1078 2341 
Q 825 1791 825 1216 
Q 825 400 1370 -133 
Q 1916 -666 2759 -666 
Q 3163 -666 3553 -530 
Q 3944 -394 4372 -103 
L 4628 -459 
Q 4206 -778 3717 -942 
Q 3228 -1106 2713 -1106 
Q 1706 -1106 1039 -437 
Q 372 231 372 1253 
Q 372 1956 698 2614 
Q 1025 3272 1613 3750 
Q 2047 4106 2609 4303 
Q 3172 4500 3763 4500 
Q 4766 4500 5423 3909 
Q 6081 3319 6081 2431 
Q 6081 1509 5445 895 
Q 4809 281 3822 263 
L 3916 744 
z
M 3419 2644 
Q 2978 2644 2670 2295 
Q 2363 1947 2363 1459 
Q 2363 1109 2541 912 
Q 2719 716 3034 716 
Q 3478 716 3778 1072 
Q 4078 1428 4078 1947 
Q 4078 2266 3898 2455 
Q 3719 2644 3419 2644 
z
" transform="scale(0.015625)"/>
      <path id="DejaVuSans-Oblique-2c" d="M 575 794 
L 1234 794 
L 1131 256 
L 422 -744 
L 19 -744 
L 469 256 
L 575 794 
z
" transform="scale(0.015625)"/>
      <path id="DejaVuSans-Oblique-30" d="M 2444 4750 
Q 3078 4750 3414 4328 
Q 3750 3906 3750 3116 
Q 3750 2516 3592 1923 
Q 3434 1331 3150 863 
Q 2859 394 2467 151 
Q 2075 -91 1600 -91 
Q 988 -91 653 334 
Q 319 759 319 1544 
Q 319 2138 480 2733 
Q 641 3328 928 3794 
Q 1216 4263 1602 4506 
Q 1988 4750 2444 4750 
z
M 2406 4250 
Q 2169 4250 1955 4123 
Q 1741 3997 1569 3750 
Q 1281 3338 1111 2720 
Q 941 2103 941 1453 
Q 941 938 1123 673 
Q 1306 409 1663 409 
Q 1913 409 2125 536 
Q 2338 663 2509 909 
Q 2794 1319 2961 1936 
Q 3128 2553 3128 3206 
Q 3128 3722 2945 3986 
Q 2763 4250 2406 4250 
z
" transform="scale(0.015625)"/>
     </defs>
     <use xlink:href="#DejaVuSans-Oblique-46"/>
     <use xlink:href="#DejaVuSans-Oblique-69" transform="translate(57.519531 0)"/>
     <use xlink:href="#DejaVuSans-Oblique-6e" transform="translate(85.302734 0)"/>
     <use xlink:href="#DejaVuSans-Oblique-61" transform="translate(148.681641 0)"/>
     <use xlink:href="#DejaVuSans-Oblique-6c" transform="translate(209.960938 0)"/>
     <use xlink:href="#DejaVuSans-Oblique-20" transform="translate(237.744141 0)"/>
     <use xlink:href="#DejaVuSans-Oblique-64" transform="translate(269.53125 0)"/>
     <use xlink:href="#DejaVuSans-Oblique-65" transform="translate(333.007812 0)"/>
     <use xlink:href="#DejaVuSans-Oblique-70" transform="translate(394.53125 0)"/>
     <use xlink:href="#DejaVuSans-Oblique-6c" transform="translate(458.007812 0)"/>
     <use xlink:href="#DejaVuSans-Oblique-6f" transform="translate(485.791016 0)"/>
     <use xlink:href="#DejaVuSans-Oblique-79" transform="translate(546.972656 0)"/>
     <use xlink:href="#DejaVuSans-Oblique-65" transform="translate(606.152344 0)"/>
     <use xlink:href="#DejaVuSans-Oblique-64" transform="translate(667.675781 0)"/>
     <use xlink:href="#DejaVuSans-Oblique-20" transform="translate(731.152344 0)"/>
     <use xlink:href="#DejaVuSans-Oblique-6d" transform="translate(762.939453 0)"/>
     <use xlink:href="#DejaVuSans-Oblique-6f" transform="translate(860.351562 0)"/>
     <use xlink:href="#DejaVuSans-Oblique-64" transform="translate(921.533203 0)"/>
     <use xlink:href="#DejaVuSans-Oblique-65" transform="translate(985.009766 0)"/>
     <use xlink:href="#DejaVuSans-Oblique-6c" transform="translate(1046.533203 0)"/>
     <use xlink:href="#DejaVuSans-Oblique-3a" transform="translate(1074.316406 0)"/>
     <use xlink:href="#DejaVuSans-Oblique-20" transform="translate(1108.007812 0)"/>
     <use xlink:href="#DejaVuSans-Oblique-54" transform="translate(1139.794922 0)"/>
     <use xlink:href="#DejaVuSans-Oblique-44" transform="translate(1200.878906 0)"/>
     <use xlink:href="#DejaVuSans-Oblique-4d" transform="translate(1277.880859 0)"/>
     <use xlink:href="#DejaVuSans-Oblique-2d" transform="translate(1364.160156 0)"/>
     <use xlink:href="#DejaVuSans-Oblique-46" transform="translate(1400.244141 0)"/>
     <use xlink:href="#DejaVuSans-Oblique-61" transform="translate(1457.763672 0)"/>
     <use xlink:href="#DejaVuSans-Oblique-73" transform="translate(1519.042969 0)"/>
     <use xlink:href="#DejaVuSans-Oblique-74" transform="translate(1571.142578 0)"/>
     <use xlink:href="#DejaVuSans-Oblique-20" transform="translate(1610.351562 0)"/>
     <use xlink:href="#DejaVuSans-Oblique-40" transform="translate(1642.138672 0)"/>
     <use xlink:href="#DejaVuSans-Oblique-31" transform="translate(1742.138672 0)"/>
     <use xlink:href="#DejaVuSans-Oblique-32" transform="translate(1805.761719 0)"/>
     <use xlink:href="#DejaVuSans-Oblique-38" transform="translate(1869.384766 0)"/>
     <use xlink:href="#DejaVuSans-Oblique-2c" transform="translate(1933.007812 0)"/>
     <use xlink:href="#DejaVuSans-Oblique-20" transform="translate(1964.794922 0)"/>
     <use xlink:href="#DejaVuSans-Oblique-39" transform="translate(1996.582031 0)"/>
     <use xlink:href="#DejaVuSans-Oblique-31" transform="translate(2060.205078 0)"/>
     <use xlink:href="#DejaVuSans-Oblique-2c" transform="translate(2123.828125 0)"/>
     <use xlink:href="#DejaVuSans-Oblique-39" transform="translate(2155.615234 0)"/>
     <use xlink:href="#DejaVuSans-Oblique-30" transform="translate(2219.238281 0)"/>
     <use xlink:href="#DejaVuSans-Oblique-32" transform="translate(2282.861328 0)"/>
     <use xlink:href="#DejaVuSans-Oblique-20" transform="translate(2346.484375 0)"/>
     <use xlink:href="#DejaVuSans-Oblique-70" transform="translate(2378.271484 0)"/>
     <use xlink:href="#DejaVuSans-Oblique-61" transform="translate(2441.748047 0)"/>
     <use xlink:href="#DejaVuSans-Oblique-72" transform="translate(2503.027344 0)"/>
     <use xlink:href="#DejaVuSans-Oblique-61" transform="translate(2544.140625 0)"/>
     <use xlink:href="#DejaVuSans-Oblique-6d" transform="translate(2605.419922 0)"/>
     <use xlink:href="#DejaVuSans-Oblique-73" transform="translate(2702.832031 0)"/>
    </g>
   </g>
   <g id="text_19">
    <!-- TDM-Fast @128 Architecture -->
    <g transform="translate(422.606288 20.877187) scale(0.18 -0.18)">
     <defs>
      <path id="DejaVuSans-Bold-54" d="M 31 4666 
L 4331 4666 
L 4331 3756 
L 2784 3756 
L 2784 0 
L 1581 0 
L 1581 3756 
L 31 3756 
L 31 4666 
z
" transform="scale(0.015625)"/>
      <path id="DejaVuSans-Bold-44" d="M 1791 3756 
L 1791 909 
L 2222 909 
Q 2959 909 3348 1275 
Q 3738 1641 3738 2338 
Q 3738 3031 3350 3393 
Q 2963 3756 2222 3756 
L 1791 3756 
z
M 588 4666 
L 1856 4666 
Q 2919 4666 3439 4514 
Q 3959 4363 4331 4000 
Q 4659 3684 4818 3271 
Q 4978 2859 4978 2338 
Q 4978 1809 4818 1395 
Q 4659 981 4331 666 
Q 3956 303 3431 151 
Q 2906 0 1856 0 
L 588 0 
L 588 4666 
z
" transform="scale(0.015625)"/>
      <path id="DejaVuSans-Bold-2d" d="M 347 2297 
L 2309 2297 
L 2309 1388 
L 347 1388 
L 347 2297 
z
" transform="scale(0.015625)"/>
      <path id="DejaVuSans-Bold-40" d="M 2597 1684 
Q 2597 1300 2761 1078 
Q 2925 856 3206 856 
Q 3484 856 3650 1079 
Q 3816 1303 3816 1684 
Q 3816 2063 3648 2283 
Q 3481 2503 3200 2503 
Q 2925 2503 2761 2283 
Q 2597 2063 2597 1684 
z
M 3878 744 
Q 3784 522 3576 398 
Q 3369 275 3091 275 
Q 2553 275 2217 664 
Q 1881 1053 1881 1678 
Q 1881 2303 2218 2693 
Q 2556 3084 3091 3084 
Q 3369 3084 3576 2959 
Q 3784 2834 3878 2613 
L 3878 3022 
L 4531 3022 
L 4531 856 
Q 4919 916 5141 1230 
Q 5363 1544 5363 2034 
Q 5363 2347 5272 2620 
Q 5181 2894 4997 3122 
Q 4700 3503 4254 3709 
Q 3809 3916 3291 3916 
Q 2928 3916 2597 3820 
Q 2266 3725 1984 3541 
Q 1522 3234 1264 2748 
Q 1006 2263 1006 1697 
Q 1006 1231 1173 823 
Q 1341 416 1656 103 
Q 1969 -203 2373 -364 
Q 2778 -525 3238 -525 
Q 3631 -525 4025 -378 
Q 4419 -231 4697 19 
L 5031 -488 
Q 4641 -791 4180 -952 
Q 3719 -1113 3244 -1113 
Q 2666 -1113 2153 -908 
Q 1641 -703 1241 -313 
Q 841 78 631 592 
Q 422 1106 422 1697 
Q 422 2266 634 2781 
Q 847 3297 1241 3688 
Q 1634 4075 2157 4287 
Q 2681 4500 3244 4500 
Q 3944 4500 4516 4233 
Q 5088 3966 5472 3463 
Q 5706 3156 5826 2798 
Q 5947 2441 5947 2047 
Q 5947 1200 5437 731 
Q 4928 263 4000 263 
L 3878 263 
L 3878 744 
z
" transform="scale(0.015625)"/>
      <path id="DejaVuSans-Bold-31" d="M 750 831 
L 1813 831 
L 1813 3847 
L 722 3622 
L 722 4441 
L 1806 4666 
L 2950 4666 
L 2950 831 
L 4013 831 
L 4013 0 
L 750 0 
L 750 831 
z
" transform="scale(0.015625)"/>
      <path id="DejaVuSans-Bold-32" d="M 1844 884 
L 3897 884 
L 3897 0 
L 506 0 
L 506 884 
L 2209 2388 
Q 2438 2594 2547 2791 
Q 2656 2988 2656 3200 
Q 2656 3528 2436 3728 
Q 2216 3928 1850 3928 
Q 1569 3928 1234 3808 
Q 900 3688 519 3450 
L 519 4475 
Q 925 4609 1322 4679 
Q 1719 4750 2100 4750 
Q 2938 4750 3402 4381 
Q 3866 4013 3866 3353 
Q 3866 2972 3669 2642 
Q 3472 2313 2841 1759 
L 1844 884 
z
" transform="scale(0.015625)"/>
      <path id="DejaVuSans-Bold-38" d="M 2228 2088 
Q 1891 2088 1709 1903 
Q 1528 1719 1528 1375 
Q 1528 1031 1709 848 
Q 1891 666 2228 666 
Q 2563 666 2741 848 
Q 2919 1031 2919 1375 
Q 2919 1722 2741 1905 
Q 2563 2088 2228 2088 
z
M 1350 2484 
Q 925 2613 709 2878 
Q 494 3144 494 3541 
Q 494 4131 934 4440 
Q 1375 4750 2228 4750 
Q 3075 4750 3515 4442 
Q 3956 4134 3956 3541 
Q 3956 3144 3739 2878 
Q 3522 2613 3097 2484 
Q 3572 2353 3814 2058 
Q 4056 1763 4056 1313 
Q 4056 619 3595 264 
Q 3134 -91 2228 -91 
Q 1319 -91 855 264 
Q 391 619 391 1313 
Q 391 1763 633 2058 
Q 875 2353 1350 2484 
z
M 1631 3419 
Q 1631 3141 1786 2991 
Q 1941 2841 2228 2841 
Q 2509 2841 2662 2991 
Q 2816 3141 2816 3419 
Q 2816 3697 2662 3845 
Q 2509 3994 2228 3994 
Q 1941 3994 1786 3844 
Q 1631 3694 1631 3419 
z
" transform="scale(0.015625)"/>
      <path id="DejaVuSans-Bold-41" d="M 3419 850 
L 1538 850 
L 1241 0 
L 31 0 
L 1759 4666 
L 3194 4666 
L 4922 0 
L 3713 0 
L 3419 850 
z
M 1838 1716 
L 3116 1716 
L 2478 3572 
L 1838 1716 
z
" transform="scale(0.015625)"/>
      <path id="DejaVuSans-Bold-68" d="M 4056 2131 
L 4056 0 
L 2931 0 
L 2931 347 
L 2931 1625 
Q 2931 2084 2911 2256 
Q 2891 2428 2841 2509 
Q 2775 2619 2662 2680 
Q 2550 2741 2406 2741 
Q 2056 2741 1856 2470 
Q 1656 2200 1656 1722 
L 1656 0 
L 538 0 
L 538 4863 
L 1656 4863 
L 1656 2988 
Q 1909 3294 2193 3439 
Q 2478 3584 2822 3584 
Q 3428 3584 3742 3212 
Q 4056 2841 4056 2131 
z
" transform="scale(0.015625)"/>
     </defs>
     <use xlink:href="#DejaVuSans-Bold-54"/>
     <use xlink:href="#DejaVuSans-Bold-44" transform="translate(68.212891 0)"/>
     <use xlink:href="#DejaVuSans-Bold-4d" transform="translate(151.220703 0)"/>
     <use xlink:href="#DejaVuSans-Bold-2d" transform="translate(250.732422 0)"/>
     <use xlink:href="#DejaVuSans-Bold-46" transform="translate(292.236328 0)"/>
     <use xlink:href="#DejaVuSans-Bold-61" transform="translate(354.671875 0)"/>
     <use xlink:href="#DejaVuSans-Bold-73" transform="translate(422.152344 0)"/>
     <use xlink:href="#DejaVuSans-Bold-74" transform="translate(481.673828 0)"/>
     <use xlink:href="#DejaVuSans-Bold-20" transform="translate(529.476562 0)"/>
     <use xlink:href="#DejaVuSans-Bold-40" transform="translate(564.291016 0)"/>
     <use xlink:href="#DejaVuSans-Bold-31" transform="translate(664.291016 0)"/>
     <use xlink:href="#DejaVuSans-Bold-32" transform="translate(733.871094 0)"/>
     <use xlink:href="#DejaVuSans-Bold-38" transform="translate(803.451172 0)"/>
     <use xlink:href="#DejaVuSans-Bold-20" transform="translate(873.03125 0)"/>
     <use xlink:href="#DejaVuSans-Bold-41" transform="translate(907.845703 0)"/>
     <use xlink:href="#DejaVuSans-Bold-72" transform="translate(985.238281 0)"/>
     <use xlink:href="#DejaVuSans-Bold-63" transform="translate(1034.554688 0)"/>
     <use xlink:href="#DejaVuSans-Bold-68" transform="translate(1093.832031 0)"/>
     <use xlink:href="#DejaVuSans-Bold-69" transform="translate(1165.023438 0)"/>
     <use xlink:href="#DejaVuSans-Bold-74" transform="translate(1199.300781 0)"/>
     <use xlink:href="#DejaVuSans-Bold-65" transform="translate(1247.103516 0)"/>
     <use xlink:href="#DejaVuSans-Bold-63" transform="translate(1314.925781 0)"/>
     <use xlink:href="#DejaVuSans-Bold-74" transform="translate(1374.203125 0)"/>
     <use xlink:href="#DejaVuSans-Bold-75" transform="translate(1422.005859 0)"/>
     <use xlink:href="#DejaVuSans-Bold-72" transform="translate(1493.197266 0)"/>
     <use xlink:href="#DejaVuSans-Bold-65" transform="translate(1542.513672 0)"/>
    </g>
   </g>
  </g>
 </g>
 <defs>
  <clipPath id="p8a40a86c9c">
   <rect x="7.2" y="30.877187" width="1120.671639" height="378.08"/>
  </clipPath>
 </defs>
</svg>
